<svg width="23" height="41" viewBox="0 0 23 41" fill="none" xmlns="http://www.w3.org/2000/svg">
    <path fill-rule="evenodd" clip-rule="evenodd" d="M20.3077 0.192139V2.78476H17.7152V5.37738H15.1228V7.96961H12.5303V10.5622H9.93782V12.7227H7.34535V14.8831H4.75287V17.0432H2.1604V19.2036H0V21.7964H2.16037V23.9569H4.75285V26.1169H7.34532V28.2774H9.93779V30.4378H12.5303V33.0305H15.1227V35.6227H17.7152V38.2153H20.3077V40.8079H22.468V0.192139H20.3077Z" fill="white"/>
    <mask id="mask0_29_941" style="mask-type:alpha" maskUnits="userSpaceOnUse" x="0" y="0" width="23" height="41">
        <path fill-rule="evenodd" clip-rule="evenodd" d="M20.3077 0.192139V2.78476H17.7152V5.37738H15.1228V7.96961H12.5303V10.5622H9.93782V12.7227H7.34535V14.8831H4.75287V17.0432H2.1604V19.2036H0V21.7964H2.16037V23.9569H4.75285V26.1169H7.34532V28.2774H9.93779V30.4378H12.5303V33.0305H15.1227V35.6227H17.7152V38.2153H20.3077V40.8079H22.468V0.192139H20.3077Z" fill="white"/>
    </mask>
    <g mask="url(#mask0_29_941)">
        <rect x="-1.60486" y="22.6606" width="28.0851" height="18.4559" fill="#ACB7DF"/>
    </g>
</svg>