<svg width="1728" height="1062" viewBox="0 0 1728 1062" fill="none" xmlns="http://www.w3.org/2000/svg">
    <path d="M506 541.5C506 540.214 506.352 538.958 507.011 537.889C507.67 536.82 508.608 535.987 509.704 535.495C510.8 535.003 512.007 534.874 513.171 535.125C514.334 535.376 515.404 535.995 516.243 536.904C517.082 537.813 517.653 538.971 517.885 540.232C518.116 541.493 517.997 542.8 517.543 543.987C517.089 545.175 516.32 546.19 515.333 546.905C514.347 547.619 513.187 548 512 548C510.409 548 508.883 547.315 507.757 546.096C506.632 544.877 506 543.224 506 541.5V541.5Z" fill="#B997CC"/>
    <path d="M424 912.358L424.97 936.888H428.353L428.813 946.489H434.372L434.819 951.818H453.088L453.772 957.16H442.343L442.94 959.651H459.94L461.892 972.8H432.419L430.579 987.02H443.201V990.93H430.156L426.176 1020.82H451.359L452.528 1026.33H454.816L456.694 1035.06H465.661V1041.02H449.332L445.601 1066.49L511.189 1067L509.746 1054.17H516.511L517.867 1047.43H497.609L496.178 1036.41H485.198L484.451 1026.08H532.79L533.922 1014H546.233L540.227 971.331H505.742L506.264 957.11H557.077L558.582 941.458H539.182L535.725 918.708H521.946L522.941 862.761H542.415L543.659 842.14H554.255L554.889 831.706H550.238L550.586 824.832H560L558.669 805.208H527.206L526.336 782.209H510.169L509.647 739.872L509.124 782.209H506.239L505.717 713L505.195 782.209H497.223L496.353 805.208H491.229L489.836 824.882H500.643L501.004 831.755H496.353L496.974 842.19H499.462L500.705 862.811H503.192V878.575H471.232L469.503 890.305H465.225L462.738 906.306H500.606V912.358H424Z" fill="url(#paint0_linear_7_13136)"/>
    <path d="M499.743 755.046H491.854V760.169H499.743V1066.45L570.671 1067L559.024 781.652H579.045L579.568 776.53H558.812L558.153 760.169H584.62L585.69 755.046H557.891L557.63 748.83H586.81L589 728.068H552.914L551.67 710.986H546.692L543.084 536L539.475 710.986H530.329L529.632 689.416H517.575L513.978 600.972L510.37 689.416H505.492L504.248 728.068H490V748.805H499.743V755.046Z" fill="url(#paint1_linear_7_13136)"/>
    <path d="M1228 912.319L1230.71 936.846H1240.09L1241.33 946.445H1256.75L1258 951.774H1308.63L1310.51 957.115H1278.84L1280.51 959.606H1327.58L1333 972.753H1251.34L1246.17 986.972H1281.18V990.881H1245.08L1234.04 1020.76H1303.83L1307.07 1026.28H1313.42L1318.57 1035.07H1343.47V1041.03H1298.21L1285.16 1072.84C1347.33 1073.26 1409.51 1073.64 1471.68 1074L1465.46 1054.18H1484.2L1487.94 1047.43H1431.92L1427.96 1036.41H1397.55L1395.46 1026.09H1529.43L1532.55 1014.01H1566.71L1550.05 971.346H1454.47L1455.92 957.128H1596.72L1600.88 941.478H1547.17L1537.58 918.731H1499.42L1502.18 862.791H1556.13L1559.65 842.173H1589.03L1590.77 831.74H1577.88L1578.86 824.867H1605L1601.14 805.195H1514.01L1511.52 782.199H1466.83L1465.36 739.868L1463.9 782.199H1455.92L1454.47 713L1453.01 782.199H1430.94L1428.52 805.195H1414.32L1410.46 824.867H1440.43L1441.41 831.74H1428.52L1430.27 842.173H1436.99L1440.52 862.791H1447.35V878.553H1358.8L1354.01 890.282H1342.14L1335.25 906.28H1440.19V912.331L1228 912.319Z" fill="url(#paint2_linear_7_13136)"/>
    <path d="M1430.7 755.027H1416.35V760.149H1430.7V1073.28C1473.87 1073.54 1517.03 1073.78 1560.19 1074L1538.51 781.633H1574.93L1575.86 776.51H1538.12L1536.88 760.149H1585.02L1586.97 755.027H1536.51L1536.04 748.81H1589.11L1593 728.073H1527.26L1524.96 710.99H1516.12L1509.56 536L1503.01 710.99H1486.37L1485.13 689.419H1463.14L1456.59 600.973L1450.03 689.419H1441.16L1438.86 728.073H1413V748.81H1430.71L1430.7 755.027Z" fill="url(#paint3_linear_7_13136)"/>
    <path d="M1312 718.054H1335.98L1336.83 711.822H1340.05L1342.44 648L1344.84 711.822H1350.9L1351.37 703.958H1359.39L1361.78 671.704L1364.17 703.958H1367.4L1368.25 718.054H1377.68V725.606H1371.22V727.887H1376.46V729.756H1371.22L1383 924.975L1329.76 925L1331.89 737.596H1318.61L1318.27 735.726H1332.03L1332.47 729.756H1314.91L1314.2 727.887H1332.61L1332.79 725.606H1313.43L1312 718.054Z" fill="url(#paint4_linear_7_13136)"/>
    <path d="M47.8479 977.907H130.658L130.858 1064.48L209.796 1065L209.995 977.932H259.699L261.492 965.73H291L280.653 950.804H189.439V943.341H233.577L225.583 928.415H179.914L178.083 910.503L176.365 928.315H169.667L167.886 891L166.106 928.315H103.067L95.0863 943.241H151.215V950.704H13.3342L3 965.63H46.1048L47.8479 977.907Z" fill="url(#paint5_linear_7_13136)"/>
    <path d="M176 744.277L177.407 779.506H182.276L182.936 793.287H190.944L191.604 800.954H217.917L218.901 808.608H202.426L203.297 812.187H227.78L230.595 831.075H188.129L185.427 851.491H203.621V857.108H184.941L179.088 900.004H215.377L217.058 907.919H220.371L223.048 920.544H235.962V929.106H212.513L204.169 985.26H190.296L179.188 1063.97C227.614 1064.3 276.049 1064.64 324.491 1065L315.102 987.273H303.894L299.448 947.957H309.199L311.154 938.252H282.051L279.959 922.47H264.143L263.06 907.658H332.76L334.379 890.261H352.187L343.47 829H293.782L294.541 808.571H367.753L369.92 786.104H341.963L336.982 753.435H317.131L318.564 673.137H346.633L348.451 643.525H363.719L364.628 628.613H357.928L358.439 618.747H372L369.995 590.489H324.703L323.458 557.473H300.208L299.448 496.683L298.639 557.41H294.492L293.732 458L292.972 557.41H281.491L280.245 590.427H272.873L270.856 618.685H286.434L286.945 628.551H280.245L281.154 643.463H284.654L286.497 673.074H290.033V695.715H243.957L241.466 712.565H235.24L231.666 735.541H286.235V744.24L176 744.277Z" fill="url(#paint6_linear_7_13136)"/>
    <path d="M315.748 672.675L315.449 679.802H283.788L285.034 685.636H315.237L314.477 704.295H290.803L291.388 710.142H314.24L299.737 1065.4L381.886 1066V685.636H390.894V679.802H381.886V672.675H393V649.041H376.802L375.369 604.969H369.799L365.688 504.112L361.576 604.969H347.72L346.91 629.524H336.481L332.357 430L328.245 629.524H322.701L321.255 649.041H280L282.492 672.675H315.748Z" fill="url(#paint7_linear_7_13136)"/>
    <path d="M890.915 1070.33L977.635 1071L977.921 945.054H1032.56L1034.54 931.577H1067L1055.62 915.062H955.319V906.804H1003.93L995.133 890.289H944.837L942.888 870.61L940.926 890.289H933.561L931.599 849L929.649 890.289H752V906.804H913.269V915.062H752V945.054H890.655L890.915 1070.33Z" fill="url(#paint8_linear_7_13136)"/>
    <path d="M939.882 683.138L941.436 722.291H946.841L947.562 737.601H956.447L957.168 746.121H986.333L987.414 754.628H969.172L970.129 758.596H997.256L1000.37 779.59H953.328L950.321 802.289H970.489V808.507H949.724L943.362 856.168H983.574L985.426 864.961H989.154L992.062 879.003H1006.38V888.518H980.281L971.036 950.929H955.726L939 1069.73L1024.74 1070.39L1108.24 1071L1094.03 953.192H1081.61L1076.64 909.512H1087.45L1089.6 898.729H1057.29L1055.01 881.142H1037.58L1036.34 864.687H1113.52L1115.37 845.422H1135.05L1125.45 777.339H1070.39L1071.22 754.641H1152.34L1154.74 729.679H1123.77L1118.22 693.349H1096.22L1097.84 604.135H1128.9L1130.93 571.225H1147.85L1148.86 554.584H1141.4L1141.98 543.614H1157L1154.84 512.098H1104.65L1103.3 475.457H1077.49L1076.66 407.909L1075.82 475.457H1071.22L1070.39 365L1069.54 475.457H1056.83L1055.42 512.098H1047.25L1045.02 543.502H1062.3L1062.87 554.472H1055.41L1056.42 571.114H1060.3L1062.3 604.135H1066.22V629.296H1015.26L1012.5 648.014H1005.66L1001.69 673.549H1062.15V683.2L939.882 683.138Z" fill="url(#paint9_linear_7_13136)"/>
    <path d="M1027 814.125L1028.24 844.912H1032.5L1033.07 856.965H1040.07L1040.63 863.658H1063.6L1064.46 870.35H1050.06L1050.82 873.472H1072.2L1074.69 889.979H1037.58L1035.21 907.829H1051.11V912.742H1034.75L1029.78 950.221H1061.43L1062.9 957.137H1065.79L1068.13 968.183H1079.4V975.647H1058.85L1051.57 1024.73H1039.47L1032.95 1071.12L1153.85 1072L1148.36 1026.6H1138.63L1134.76 992.228H1143.26L1144.96 983.757H1119.49L1117.68 969.925H1103.93L1102.99 956.976H1163.77L1165.18 941.812H1180.69L1173.12 888.324H1129.77L1130.43 870.474H1194.3L1196.2 850.833H1171.75L1167.41 822.223H1150.14L1151.38 752.017H1175.86L1177.47 726.131H1190.78L1191.58 713.045H1185.73L1186.18 704.425H1198L1196.26 679.721H1156.75L1155.65 650.875H1135.37L1134.71 597.735L1134.05 650.875H1130.43L1129.77 564L1129.11 650.875H1119.09L1117.99 679.721H1111.55L1109.79 704.425H1123.4L1123.83 713.045H1117.99L1118.78 726.131H1121.84L1123.43 752.017H1126.53V771.807H1086.36L1084.18 786.523H1078.79L1075.67 806.612H1123.28V814.2L1027 814.125Z" fill="url(#paint10_linear_7_13136)"/>
    <path d="M738.548 603.408L738.225 611.309H703.197L704.55 617.805H737.964L737.12 638.521H710.92L711.566 645.004H736.846L719.637 1068.28L811.695 1069V617.854H821.628V611.359H811.695V603.458H824V577.204H806.033L804.444 528.242H798.235L793.691 416.258L789.134 528.242H773.973L773.079 555.616H761.531L756.987 334L752.38 555.517H746.171L744.582 577.154H699L701.707 603.408H738.548Z" fill="url(#paint11_linear_7_13136)"/>
    <path d="M1130.63 789.925V929H997V710.878H1081.64V701H1144V789.925H1125.07H1130.63Z" fill="url(#paint12_linear_7_13136)"/>
    <path d="M1267 1073L1265.47 1060.52H1257.86L1256.62 1040.69H1244.78L1243.99 981L1243.21 1040.69H1238.94L1238.16 1004.19L1237.38 1040.69H1213.4L1212.16 1060.52H1165.44L1164 1072.3L1267 1073Z" fill="url(#paint13_linear_7_13136)"/>
    <path d="M1167.5 1012.42L1167.13 1017.77H1125.9L1127.49 1022.16H1166.87L1165.87 1036.19H1135.01L1135.78 1040.57H1165.51L1163.27 1072.38L1253.53 1073V1022.16H1265.24V1017.77H1253.53V1012.42H1268V994.648H1246.9L1245.02 961.512H1237.79L1232.44 885.688L1227.07 961.512H1209.07L1208.03 980.004H1194.45L1189.1 830L1183.75 980.004H1176.53L1174.65 994.648H1121L1124.19 1012.42H1167.5Z" fill="url(#paint14_linear_7_13136)"/>
    <path d="M1360.6 966.02H1468.81L1469.24 1073.46L1572.05 1074L1572.47 966.02H1637.42L1639.76 956.896H1644V945.754H1545.59V940.171H1603.27L1592.83 929.029H1533.17L1530.85 915.708L1528.52 929.029H1519.8L1517.45 901L1515.13 928.942H1432.76L1422.32 940.084H1495.67V945.668H1315.5L1302 956.81H1358.27L1360.6 966.02Z" fill="url(#paint15_linear_7_13136)"/>
    <path d="M1536.56 817.487L1537.41 827.85H1547.88L1548.73 833.61H1583.11L1584.35 839.37H1562.84L1563.97 842.057H1595.95L1599.68 856.265H1544.21L1540.67 871.617H1564.45V875.884H1539.96L1532.49 908.131H1579.89L1582.08 914.077H1586.41L1589.91 923.582H1606.78V930.014H1576.07L1565.18 972.238H1547.06L1522 1074.39C1562.69 1074.61 1603.35 1074.82 1644 1075V924.976H1643.5L1642.08 913.779H1643.93V791H1528.31L1530.15 817.487H1536.56Z" fill="url(#paint16_linear_7_13136)"/>
    <path d="M1644 754H1617.09L1613.82 766.688H1605.7L1601 784H1644V754Z" fill="url(#paint17_linear_7_13136)"/>
    <path d="M526.374 979.134H517.66L518.905 990.399H538.822L541.225 1012.64H577.86L579.566 1067.56L763.801 1069L764 1066.09H619.823V1059.58H691.053L686.385 1042.31H678.331L675.082 1029.65H614.968V1012.63H619.599L621.989 990.386H626.558L627.803 979.122H619.089L619.749 971.662H640.089L637.375 950.538H627.74L626.097 925.673H611.159L610.163 851L609.143 925.673H603.728L602.732 880.006L601.748 925.673H571.399L569.756 950.538H510.627L508 971.675H525.702L526.374 979.134Z" fill="url(#paint18_linear_7_13136)"/>
    <path d="M495.448 1017.03H483.731V1021.39H495.448V1066.31L585.388 1067L583.452 1039.71H613.18L613.949 1035.35H583.142L582.149 1021.37H621.446L623.035 1017H581.838L581.466 1011.67H624.773L628 993.995H574.292L572.417 979.409H565.193L559.844 830L554.494 979.409H540.915L539.872 960.99H521.924L516.562 885.467L511.212 960.99H503.975L502.101 993.995H481V1011.69H495.473L495.448 1017.03Z" fill="url(#paint19_linear_7_13136)"/>
    <path d="M1487 1043H1481V1045H1487V1043Z" fill="#73715D"/>
    <path d="M1464 1036H1445V1042H1464V1036Z" fill="#73715D"/>
    <path d="M1531 1036H1510V1043H1531V1036Z" fill="#73715D"/>
    <path d="M1491 1035H1481V1038H1491V1035Z" fill="#73715D"/>
    <path d="M1492 1032H1482V1036H1492V1032Z" fill="#73715D"/>
    <path d="M1495 1026H1475V1033H1495V1026Z" fill="#73715D"/>
    <path d="M1513 1026H1501V1030H1513V1026Z" fill="#73715D"/>
    <path d="M1534 1020H1519V1025H1534V1020Z" fill="#73715D"/>
    <g style="mix-blend-mode:screen">
        <path d="M1429.84 1033.3H1424.25V1035.2H1429.84V1033.3Z" fill="#73715D"/>
        <path d="M1451.08 1034.41H1445.96V1036.16H1451.08V1034.41Z" fill="#73715D"/>
        <path d="M1448.23 1030.27H1439.94V1033.1H1448.23V1030.27Z" fill="#73715D"/>
        <path d="M1476.31 1030.23H1467.32V1033.3H1476.31V1030.23Z" fill="#73715D"/>
        <path d="M1466.86 1026.03H1452.63V1030.87H1466.86V1026.03Z" fill="#73715D"/>
        <path d="M1517.98 1024.54H1507.15V1028.22H1517.98V1024.54Z" fill="#73715D"/>
        <path d="M1505.13 1014.72H1491.41V1019.39H1505.13V1014.72Z" fill="#73715D"/>
        <path d="M1432.09 1000.89H1427.41V1002.48H1432.09V1000.89Z" fill="#73715D"/>
        <path d="M1485.39 998.36H1465.82V1005.02H1485.39V998.36Z" fill="#73715D"/>
        <path d="M1460.71 992.775H1441.02V999.468H1460.71V992.775Z" fill="#73715D"/>
        <path d="M1443.71 984.999H1423.57V991.854H1443.71V984.999Z" fill="#73715D"/>
        <path d="M1441.52 982.05H1424.86V987.724H1441.52V982.05Z" fill="#73715D"/>
        <path d="M1466.89 979.326H1449.99V985.074H1466.89V979.326Z" fill="#73715D"/>
        <path d="M1493.82 979.873H1488.6V981.652H1493.82V979.873Z" fill="#73715D"/>
        <path d="M1513.84 976.253H1492.74V983.431H1513.84V976.253Z" fill="#73715D"/>
        <path d="M1506.39 970.43H1488.52V976.514H1506.39V970.43Z" fill="#73715D"/>
        <path d="M1524.34 971.065H1513.01V974.922H1524.34V971.065Z" fill="#73715D"/>
        <path d="M1477.55 962.07H1460.43V967.892H1477.55V962.07Z" fill="#73715D"/>
    </g>
    <g style="mix-blend-mode:screen">
        <path d="M990.695 1032.3H985.507V1034.07H990.695V1032.3Z" fill="#73715D"/>
        <path d="M984.861 1027.72H965.39V1034.34H984.861V1027.72Z" fill="#73715D"/>
        <path d="M1058.95 1029.81H1051.47V1032.35H1058.95V1029.81Z" fill="#73715D"/>
        <path d="M985.868 1020.9H974.248V1024.86H985.868V1020.9Z" fill="#73715D"/>
        <path d="M999.18 1018.19H987.436V1022.19H999.18V1018.19Z" fill="#73715D"/>
        <path d="M1035.71 1017.11H1019.1V1022.76H1035.71V1017.11Z" fill="#73715D"/>
        <path d="M1017.49 1013.9H1012.16V1015.72H1017.49V1013.9Z" fill="#73715D"/>
        <path d="M1045.16 1012.02H1034V1015.82H1045.16V1012.02Z" fill="#73715D"/>
        <path d="M1035.89 1009.18H1025.38V1012.75H1035.89V1009.18Z" fill="#73715D"/>
        <path d="M1049.07 1001.5H1030.46V1007.83H1049.07V1001.5Z" fill="#73715D"/>
        <path d="M1057.42 995.039H1044.8V999.331H1057.42V995.039Z" fill="#73715D"/>
        <path d="M992.897 987.922H987.983V989.59H992.897V987.922Z" fill="#73715D"/>
        <path d="M1053.58 985.671H1037.49V991.145H1053.58V985.671Z" fill="#73715D"/>
        <path d="M1053.44 985.646H1049.57V986.965H1053.44V985.646Z" fill="#73715D"/>
        <path d="M1035.2 982.175H1030.23V983.867H1035.2V982.175Z" fill="#73715D"/>
        <path d="M992.176 977.248H979.971V981.403H992.176V977.248Z" fill="#73715D"/>
        <path d="M1036.94 976.725H1028.32V979.662H1036.94V976.725Z" fill="#73715D"/>
        <path d="M994.975 973.715H987.212V976.352H994.975V973.715Z" fill="#73715D"/>
        <path d="M1015.39 966.711H999.143V972.234H1015.39V966.711Z" fill="#73715D"/>
        <path d="M1018.43 965.404H1002.5V970.828H1018.43V965.404Z" fill="#73715D"/>
        <path d="M972.046 959.818H964.768V962.294H972.046V959.818Z" fill="#73715D"/>
        <path d="M1043.56 959.706H1034.46V962.804H1043.56V959.706Z" fill="#73715D"/>
        <path d="M1005.19 951.159H986.528V957.504H1005.19V951.159Z" fill="#73715D"/>
        <path d="M1041.32 947.178H1033.77V949.753H1041.32V947.178Z" fill="#73715D"/>
        <path d="M983.256 939.589H968.401V944.64H983.256V939.589Z" fill="#73715D"/>
    </g>
    <path d="M298 1037H281V1043H298V1037Z" fill="#73715D"/>
    <path d="M340 1033H328V1037H340V1033Z" fill="#73715D"/>
    <path d="M280 1031H275V1033H280V1031Z" fill="#73715D"/>
    <path d="M270 1030H262V1032H270V1030Z" fill="#73715D"/>
    <path d="M286 1023H268V1029H286V1023Z" fill="#73715D"/>
    <path d="M334 1019H329V1020H334V1019Z" fill="#73715D"/>
    <path d="M534 1041H520V1046H534V1041Z" fill="#73715D"/>
    <path d="M563 1039H561V1040H563V1039Z" fill="#73715D"/>
    <path d="M598 1031H578V1038H598V1031Z" fill="#73715D"/>
    <path d="M564 1023H551V1028H564V1023Z" fill="#73715D"/>
    <path d="M582 1018H573V1021H582V1018Z" fill="#73715D"/>
    <path d="M541 1013H538V1014H541V1013Z" fill="#73715D"/>
    <g style="mix-blend-mode:screen">
        <path d="M283.633 1007.46H263.74V1014.22H283.633V1007.46Z" fill="#73715D"/>
        <path d="M234.006 1003.65H225.919V1006.4H234.006V1003.65Z" fill="#73715D"/>
        <path d="M211.823 1001H205.117V1003.27H211.823V1001Z" fill="#73715D"/>
        <path d="M242.08 993.334H221.589V1000.3H242.08V993.334Z" fill="#73715D"/>
        <path d="M258.9 990.062H252.642V992.19H258.9V990.062Z" fill="#73715D"/>
        <path d="M282.351 984.352H271.403V988.072H282.351V984.352Z" fill="#73715D"/>
        <path d="M278.109 979.276H274.601V980.47H278.109V979.276Z" fill="#73715D"/>
    </g>
    <g style="mix-blend-mode:screen">
        <path d="M501.152 973.503H489.408V977.497H501.152V973.503Z" fill="#73715D"/>
        <path d="M516.641 965.056H505.221V968.937H516.641V965.056Z" fill="#73715D"/>
        <path d="M550.531 960.005H545.243V961.809H550.531V960.005Z" fill="#73715D"/>
        <path d="M507.36 955.725H499.236V958.487H507.36V955.725Z" fill="#73715D"/>
        <path d="M494.024 953.262H475.213V959.656H494.024V953.262Z" fill="#73715D"/>
    </g>
    <g style="mix-blend-mode:screen">
        <path d="M1062.88 980.433H1059.88V981.453H1062.88V980.433Z" fill="#73715D"/>
        <path d="M1115.52 974.573H1102.3V979.065H1115.52V974.573Z" fill="#73715D"/>
        <path d="M1050.23 972.458H1036.63V977.087H1050.23V972.458Z" fill="#73715D"/>
        <path d="M1054.8 971.314H1048.4V973.491H1054.8V971.314Z" fill="#73715D"/>
        <path d="M1088.39 967.034H1071.64V972.732H1088.39V967.034Z" fill="#73715D"/>
        <path d="M1089.1 958.786H1067.69V966.064H1089.1V958.786Z" fill="#73715D"/>
        <path d="M1058.96 956.409H1048.77V959.881H1058.96V956.409Z" fill="#73715D"/>
        <path d="M1046.99 949.99H1028.06V956.434H1046.99V949.99Z" fill="#73715D"/>
        <path d="M1085.62 943.633H1075.89V946.942H1085.62V943.633Z" fill="#73715D"/>
        <path d="M1097.58 938.121H1089.33V940.92H1097.58V938.121Z" fill="#73715D"/>
        <path d="M1093.3 930.072H1082.9V933.605H1093.3V930.072Z" fill="#73715D"/>
        <path d="M1043.1 923.316H1025.02V929.462H1043.1V923.316Z" fill="#73715D"/>
        <path d="M1051.23 917.519H1035.27V922.956H1051.23V917.519Z" fill="#73715D"/>
        <path d="M1020.04 915.08H1014.72V916.897H1020.04V915.08Z" fill="#73715D"/>
        <path d="M1096.99 908.536H1079.19V914.595H1096.99V908.536Z" fill="#73715D"/>
        <path d="M1097.96 903.709H1091.82V905.799H1097.96V903.709Z" fill="#73715D"/>
        <path d="M1086.22 901.109H1070.07V906.608H1086.22V901.109Z" fill="#73715D"/>
        <path d="M1075.18 896.917H1072.61V897.787H1075.18V896.917Z" fill="#73715D"/>
        <path d="M1058.75 890.161H1041.04V896.182H1058.75V890.161Z" fill="#73715D"/>
        <path d="M1027.1 890.634H1020.23V892.973H1027.1V890.634Z" fill="#73715D"/>
        <path d="M1051.76 886.715H1046.07V888.643H1051.76V886.715Z" fill="#73715D"/>
        <path d="M1025.04 879.113H1005.44V885.782H1025.04V879.113Z" fill="#73715D"/>
        <path d="M1087.59 873.813H1077.89V877.11H1087.59V873.813Z" fill="#73715D"/>
        <path d="M1077.17 868.986H1055.72V876.277H1077.17V868.986Z" fill="#73715D"/>
        <path d="M1058.13 865.627H1042.92V870.803H1058.13V865.627Z" fill="#73715D"/>
        <path d="M1079.52 863.885H1073.03V866.1H1079.52V863.885Z" fill="#73715D"/>
        <path d="M1074.11 859.208H1058.41V864.545H1074.11V859.208Z" fill="#73715D"/>
        <path d="M1095.92 852.153H1085.57V855.674H1095.92V852.153Z" fill="#73715D"/>
        <path d="M1057.12 846.107H1044.6V850.362H1057.12V846.107Z" fill="#73715D"/>
        <path d="M1067.9 843.594H1055.24V847.899H1067.9V843.594Z" fill="#73715D"/>
        <path d="M1090.25 838.991H1086.09V840.409H1090.25V838.991Z" fill="#73715D"/>
        <path d="M1101.93 832.011H1098.1V833.318H1101.93V832.011Z" fill="#73715D"/>
        <path d="M1078.14 829.349H1070.17V832.061H1078.14V829.349Z" fill="#73715D"/>
        <path d="M1050.14 826.512H1036.06V831.302H1050.14V826.512Z" fill="#73715D"/>
    </g>
    <g style="mix-blend-mode:screen">
        <path d="M1499.22 980.023H1479.32V986.791H1499.22V980.023Z" fill="#73715D"/>
        <path d="M1517.86 975.544H1501.72V981.03H1517.86V975.544Z" fill="#73715D"/>
        <path d="M1471.36 967.047H1456.69V972.035H1471.36V967.047Z" fill="#73715D"/>
        <path d="M1486.88 966.288H1480.82V968.353H1486.88V966.288Z" fill="#73715D"/>
        <path d="M1503.85 961.672H1501.59V962.443H1503.85V961.672Z" fill="#73715D"/>
        <path d="M1488.09 954.021H1473.2V959.084H1488.09V954.021Z" fill="#73715D"/>
        <path d="M1505.64 950.998H1492.31V955.539H1505.64V950.998Z" fill="#73715D"/>
        <path d="M1514.61 948.683H1510.22V950.176H1514.61V948.683Z" fill="#73715D"/>
        <path d="M1461.81 940.497H1453.88V943.197H1461.81V940.497Z" fill="#73715D"/>
        <path d="M1458.02 933.257H1446.66V937.126H1458.02V933.257Z" fill="#73715D"/>
        <path d="M1514.9 929.487H1501.28V934.128H1514.9V929.487Z" fill="#73715D"/>
    </g>
    <path d="M1029 1042H1009V1049H1029V1042Z" fill="#73715D"/>
    <path d="M1039 1042H1030V1045H1039V1042Z" fill="#73715D"/>
    <path d="M1061 1042H1045V1048H1061V1042Z" fill="#73715D"/>
    <path d="M1062 1042H1059V1044H1062V1042Z" fill="#73715D"/>
    <path d="M1093 1032H1078V1037H1093V1032Z" fill="#73715D"/>
    <path d="M1155 1020H1138V1026H1155V1020Z" fill="#73715D"/>
    <path d="M1173 1034H1167V1036H1173V1034Z" fill="#73715D"/>
    <path d="M1181 1042H1176V1043H1181V1042Z" fill="#73715D"/>
    <path d="M1179 1036H1171V1039H1179V1036Z" fill="#73715D"/>
    <path d="M1191 1020H1179V1024H1191V1020Z" fill="#73715D"/>
    <path d="M1213 1032H1192V1038H1213V1032Z" fill="#73715D"/>
    <path d="M1214 1023H1209V1025H1214V1023Z" fill="#73715D"/>
    <path d="M1222 1023H1205V1029H1222V1023Z" fill="#73715D"/>
    <path d="M1225 1027H1222V1029H1225V1027Z" fill="#73715D"/>
    <path d="M1245 1041H1241V1042H1245V1041Z" fill="#73715D"/>
    <path d="M1256 1020H1246V1023H1256V1020Z" fill="#73715D"/>
    <g style="mix-blend-mode:screen">
        <path d="M160.914 996.793H143.024V1002.88H160.914V996.793Z" fill="#73715D"/>
        <path d="M160.529 1035.52H156.187V1037H160.529V1035.52Z" fill="#73715D"/>
        <path d="M162.395 1002.53H158.389V1003.88H162.395V1002.53Z" fill="#73715D"/>
        <path d="M170.108 1030H160.093V1033.41H170.108V1030Z" fill="#73715D"/>
    </g>
    <path d="M237 1015H232V1017H237V1015Z" fill="#73715D"/>
    <path d="M245 1040H223V1048H245V1040Z" fill="#73715D"/>
    <path d="M244 1035H239V1036H244V1035Z" fill="#73715D"/>
    <path d="M269 610H265V614H269V610Z" fill="#FFFF00"/>
    <path d="M276 624.25V627H280V624L276 624.25Z" fill="#FFDD00"/>
    <path d="M1799 49.1785C1773.84 50.1134 1746.96 49.7424 1731.77 50.3063C1654.8 53.1258 1597.84 59.9224 1529.89 74.1536C1421.94 96.7691 1310.26 100.524 1189.9 100.731C1003.51 101.058 817.017 97.4666 630.968 93.1483C496.119 90.032 362.41 86.7227 232.209 71.1856C179.38 64.8936 171.683 55.0401 133.819 42.0406C82.5879 24.4408 -5.94451 17.5404 -69.4315 10.6994C-99.8649 7.43465 -129.899 4.12541 -159 0V37.9746C-75.7816 41.8329 28.9889 36.0157 79.9383 63.291C95.0662 71.3786 95.9987 79.481 118.779 86.0846C148.798 94.7955 193.916 98.1789 229.071 101.918C283.84 107.75 358.399 100.345 401.636 116.966C427.732 126.983 443.082 142.49 470.97 151.349C533.939 171.323 650.877 178.654 727.582 181.845C829.807 186.104 921.063 177.986 1019.01 167.332C1098.16 158.725 1177.16 152.047 1257.16 144.953C1296.48 141.451 1359.74 138.187 1389.61 126.048C1405.7 119.503 1404.71 110.065 1421.13 104.085C1441.41 96.6653 1480.19 95.671 1505.32 93.3264C1543.54 89.75 1578.34 86.144 1615.14 81.0095C1645.07 76.6862 1675.29 74.8151 1705.52 75.4149C1734.34 76.0827 1767.69 79.6739 1799 79.763V49.1785Z" fill="url(#paint20_linear_7_13136)"/>
    <path d="M1799 212.271C1785.25 207.018 1773.54 199.633 1769.78 190.444C1780.81 186.833 1788.18 182.024 1799 178.309V139.42C1734.46 144.954 1672.49 144.57 1609.18 158.184C1506.76 180.218 1398.79 162.002 1293.54 174.861C1233.5 182.26 1179.46 191.272 1117.73 191.139C973.809 190.917 830.569 185.457 687.269 197.798C582.81 206.781 479.565 223.044 376.424 199.929C325.948 188.624 278.729 171.103 229.32 157.74C192.314 147.722 154.924 145.591 116.246 140.633C95.7155 138.014 74.4597 131.754 53.5886 131.607C28.8098 131.399 11.3136 136.875 -15.1822 132.894C-56.6283 126.664 -92.2719 102.587 -132.475 99.391C-141.045 98.6955 -149.926 98.2664 -159 98V140.915C-145.263 141.745 -131.596 143.48 -118.087 146.109C-96.224 150.548 -86.3214 160.907 -69.4913 166.826C-38.8065 177.584 22.282 172.553 55.2613 175.601C112.797 180.929 169.504 188.032 225.205 200.003C245.217 204.31 299.319 210.673 311.176 224.938C320.057 235.563 310.273 244.768 325.282 256.887C356.811 282.34 425.019 286.38 467.635 292.403C545.02 303.353 670.424 330.33 741.948 300.186C770.768 288.037 775.742 275.548 756.055 257.79C748.313 250.805 737.197 249.266 736.072 238.715C758.586 234.276 776.348 223.103 800.772 220.957C900.553 212.389 1007.37 250.642 1107.59 232.47C1107.12 230.177 1108.61 226.374 1108.32 223.887C1160.51 214.165 1230.75 211.738 1282.63 223.887C1379.09 246.588 1481.55 269.066 1584.59 255.289C1616.58 251.012 1618.72 238.271 1642.56 229.008C1662.98 221.061 1685.48 222.763 1705.18 228.652C1737.16 238.212 1767.84 250.139 1798.91 261.297L1799 212.271Z" fill="url(#paint21_linear_7_13136)"/>
    <path d="M1799 364.915C1782.72 364.076 1766.32 362.928 1749.78 361.382C1683.96 355.186 1615.65 341.011 1548.85 338.42C1504.19 336.683 1419.67 340.231 1381.9 350.961C1351.4 359.616 1356.48 368.433 1315.45 371.171C1274.12 373.923 1227.66 368.094 1185.92 367.918C1145.42 367.726 1104.92 368.404 1064.44 367.918C985.338 366.917 914.451 367.918 836.489 374.335C786.163 378.457 735.969 386.332 685.021 387.171C587.121 388.79 499.879 366.107 406.641 356.393C249.015 339.995 63.9171 340.819 -95.7957 347.561C-118.842 348.532 -139.328 349.106 -159 350.313V363.796C-80.9494 367.329 -2.35114 369.095 75.9659 370.773C198.2 373.393 315.757 382.549 435.919 391.616C519.906 397.96 599.584 413.887 685.776 415.27C798.715 417.051 902.935 394.781 1015.9 396.253C1073.72 397.062 1123.75 391.837 1180.07 387.774C1250.04 382.74 1317.08 403.171 1385.45 399.447C1442.18 396.37 1429.62 377.176 1463.09 366.74C1491.62 357.835 1568.65 370.273 1595.01 375.866C1638.96 385.184 1607.43 383.226 1617.72 396.576C1628.64 410.81 1669.28 420.967 1698.75 423.852C1729.83 426.898 1772.76 427.134 1799 421.732V364.915Z" fill="url(#paint22_linear_7_13136)"/>
    <defs>
        <linearGradient id="paint0_linear_7_13136" x1="492.012" y1="1448.57" x2="492.012" y2="174.996" gradientUnits="userSpaceOnUse">
            <stop stop-color="#FFFFE6"/>
            <stop offset="0.04" stop-color="#FFF2E4"/>
            <stop offset="0.19" stop-color="#FFBDDE"/>
            <stop offset="0.31" stop-color="#FF9CDA"/>
            <stop offset="0.37" stop-color="#FF90D8"/>
            <stop offset="0.41" stop-color="#F789D5"/>
            <stop offset="0.69" stop-color="#BE5AC3"/>
            <stop offset="0.89" stop-color="#9B3DB7"/>
            <stop offset="1" stop-color="#8E32B3"/>
        </linearGradient>
        <linearGradient id="paint1_linear_7_13136" x1="539.5" y1="1447.47" x2="539.5" y2="175.908" gradientUnits="userSpaceOnUse">
            <stop stop-color="#FFFFE6"/>
            <stop offset="0.04" stop-color="#FFF2E4"/>
            <stop offset="0.19" stop-color="#FFBDDE"/>
            <stop offset="0.31" stop-color="#FF9CDA"/>
            <stop offset="0.37" stop-color="#FF90D8"/>
            <stop offset="0.41" stop-color="#F789D5"/>
            <stop offset="0.69" stop-color="#BE5AC3"/>
            <stop offset="0.89" stop-color="#9B3DB7"/>
            <stop offset="1" stop-color="#8E32B3"/>
        </linearGradient>
        <linearGradient id="paint2_linear_7_13136" x1="1416.48" y1="1448.46" x2="1416.48" y2="175.055" gradientUnits="userSpaceOnUse">
            <stop stop-color="#FFFFE6"/>
            <stop offset="0.04" stop-color="#FFF2E4"/>
            <stop offset="0.19" stop-color="#FFBDDE"/>
            <stop offset="0.31" stop-color="#FF9CDA"/>
            <stop offset="0.37" stop-color="#FF90D8"/>
            <stop offset="0.41" stop-color="#F789D5"/>
            <stop offset="0.69" stop-color="#BE5AC3"/>
            <stop offset="0.89" stop-color="#9B3DB7"/>
            <stop offset="1" stop-color="#8E32B3"/>
        </linearGradient>
        <linearGradient id="paint3_linear_7_13136" x1="1502.99" y1="1447.47" x2="1502.99" y2="175.875" gradientUnits="userSpaceOnUse">
            <stop stop-color="#FFFFE6"/>
            <stop offset="0.04" stop-color="#FFF2E4"/>
            <stop offset="0.19" stop-color="#FFBDDE"/>
            <stop offset="0.31" stop-color="#FF9CDA"/>
            <stop offset="0.37" stop-color="#FF90D8"/>
            <stop offset="0.41" stop-color="#F789D5"/>
            <stop offset="0.69" stop-color="#BE5AC3"/>
            <stop offset="0.89" stop-color="#9B3DB7"/>
            <stop offset="1" stop-color="#8E32B3"/>
        </linearGradient>
        <linearGradient id="paint4_linear_7_13136" x1="1347.5" y1="1449.09" x2="1347.5" y2="174.411" gradientUnits="userSpaceOnUse">
            <stop stop-color="#FFFFE6"/>
            <stop offset="0.04" stop-color="#FFF2E4"/>
            <stop offset="0.19" stop-color="#FFBDDE"/>
            <stop offset="0.31" stop-color="#FF9CDA"/>
            <stop offset="0.37" stop-color="#FF90D8"/>
            <stop offset="0.41" stop-color="#F789D5"/>
            <stop offset="0.69" stop-color="#BE5AC3"/>
            <stop offset="0.89" stop-color="#9B3DB7"/>
            <stop offset="1" stop-color="#8E32B3"/>
        </linearGradient>
        <linearGradient id="paint5_linear_7_13136" x1="146.994" y1="1448.34" x2="146.994" y2="176.168" gradientUnits="userSpaceOnUse">
            <stop stop-color="#FFFFE6"/>
            <stop offset="0.04" stop-color="#FFF2E4"/>
            <stop offset="0.19" stop-color="#FFBDDE"/>
            <stop offset="0.31" stop-color="#FF9CDA"/>
            <stop offset="0.37" stop-color="#FF90D8"/>
            <stop offset="0.41" stop-color="#F789D5"/>
            <stop offset="0.69" stop-color="#BE5AC3"/>
            <stop offset="0.89" stop-color="#9B3DB7"/>
            <stop offset="1" stop-color="#8E32B3"/>
        </linearGradient>
        <linearGradient id="paint6_linear_7_13136" x1="273.994" y1="1447.15" x2="273.994" y2="176.209" gradientUnits="userSpaceOnUse">
            <stop stop-color="#FFFFE6"/>
            <stop offset="0.04" stop-color="#FFF2E4"/>
            <stop offset="0.19" stop-color="#FFBDDE"/>
            <stop offset="0.31" stop-color="#FF9CDA"/>
            <stop offset="0.37" stop-color="#FF90D8"/>
            <stop offset="0.41" stop-color="#F789D5"/>
            <stop offset="0.69" stop-color="#BE5AC3"/>
            <stop offset="0.89" stop-color="#9B3DB7"/>
            <stop offset="1" stop-color="#8E32B3"/>
        </linearGradient>
        <linearGradient id="paint7_linear_7_13136" x1="336.481" y1="1448.12" x2="336.481" y2="176.18" gradientUnits="userSpaceOnUse">
            <stop stop-color="#FFFFE6"/>
            <stop offset="0.04" stop-color="#FFF2E4"/>
            <stop offset="0.19" stop-color="#FFBDDE"/>
            <stop offset="0.31" stop-color="#FF9CDA"/>
            <stop offset="0.37" stop-color="#FF90D8"/>
            <stop offset="0.41" stop-color="#F789D5"/>
            <stop offset="0.69" stop-color="#BE5AC3"/>
            <stop offset="0.89" stop-color="#9B3DB7"/>
            <stop offset="1" stop-color="#8E32B3"/>
        </linearGradient>
        <linearGradient id="paint8_linear_7_13136" x1="909.519" y1="1448.98" x2="909.519" y2="175.091" gradientUnits="userSpaceOnUse">
            <stop stop-color="#FFFFE6"/>
            <stop offset="0.04" stop-color="#FFF2E4"/>
            <stop offset="0.19" stop-color="#FFBDDE"/>
            <stop offset="0.31" stop-color="#FF9CDA"/>
            <stop offset="0.37" stop-color="#FF90D8"/>
            <stop offset="0.41" stop-color="#F789D5"/>
            <stop offset="0.69" stop-color="#BE5AC3"/>
            <stop offset="0.89" stop-color="#9B3DB7"/>
            <stop offset="1" stop-color="#8E32B3"/>
        </linearGradient>
        <linearGradient id="paint9_linear_7_13136" x1="1048.02" y1="1447.49" x2="1048.02" y2="175.416" gradientUnits="userSpaceOnUse">
            <stop stop-color="#FFFFE6"/>
            <stop offset="0.04" stop-color="#FFF2E4"/>
            <stop offset="0.19" stop-color="#FFBDDE"/>
            <stop offset="0.31" stop-color="#FF9CDA"/>
            <stop offset="0.37" stop-color="#FF90D8"/>
            <stop offset="0.41" stop-color="#F789D5"/>
            <stop offset="0.69" stop-color="#BE5AC3"/>
            <stop offset="0.89" stop-color="#9B3DB7"/>
            <stop offset="1" stop-color="#8E32B3"/>
        </linearGradient>
        <linearGradient id="paint10_linear_7_13136" x1="1112.51" y1="1448.12" x2="1112.51" y2="175.875" gradientUnits="userSpaceOnUse">
            <stop stop-color="#FFFFE6"/>
            <stop offset="0.04" stop-color="#FFF2E4"/>
            <stop offset="0.19" stop-color="#FFBDDE"/>
            <stop offset="0.31" stop-color="#FF9CDA"/>
            <stop offset="0.37" stop-color="#FF90D8"/>
            <stop offset="0.41" stop-color="#F789D5"/>
            <stop offset="0.69" stop-color="#BE5AC3"/>
            <stop offset="0.89" stop-color="#9B3DB7"/>
            <stop offset="1" stop-color="#8E32B3"/>
        </linearGradient>
        <linearGradient id="paint11_linear_7_13136" x1="761.494" y1="1447.88" x2="761.494" y2="175.269" gradientUnits="userSpaceOnUse">
            <stop stop-color="#FFFFE6"/>
            <stop offset="0.04" stop-color="#FFF2E4"/>
            <stop offset="0.19" stop-color="#FFBDDE"/>
            <stop offset="0.31" stop-color="#FF9CDA"/>
            <stop offset="0.37" stop-color="#FF90D8"/>
            <stop offset="0.41" stop-color="#F789D5"/>
            <stop offset="0.69" stop-color="#BE5AC3"/>
            <stop offset="0.89" stop-color="#9B3DB7"/>
            <stop offset="1" stop-color="#8E32B3"/>
        </linearGradient>
        <linearGradient id="paint12_linear_7_13136" x1="1070.5" y1="1448.74" x2="1070.5" y2="174.734" gradientUnits="userSpaceOnUse">
            <stop stop-color="#FFFFE6"/>
            <stop offset="0.04" stop-color="#FFF2E4"/>
            <stop offset="0.19" stop-color="#FFBDDE"/>
            <stop offset="0.31" stop-color="#FF9CDA"/>
            <stop offset="0.37" stop-color="#FF90D8"/>
            <stop offset="0.41" stop-color="#F789D5"/>
            <stop offset="0.69" stop-color="#BE5AC3"/>
            <stop offset="0.89" stop-color="#9B3DB7"/>
            <stop offset="1" stop-color="#8E32B3"/>
        </linearGradient>
        <linearGradient id="paint13_linear_7_13136" x1="1215.45" y1="1451.64" x2="1215.45" y2="168.457" gradientUnits="userSpaceOnUse">
            <stop stop-color="#FFFFE6"/>
            <stop offset="0.04" stop-color="#FFF2E4"/>
            <stop offset="0.19" stop-color="#FFBDDE"/>
            <stop offset="0.31" stop-color="#FF9CDA"/>
            <stop offset="0.37" stop-color="#FF90D8"/>
            <stop offset="0.41" stop-color="#F789D5"/>
            <stop offset="0.69" stop-color="#BE5AC3"/>
            <stop offset="0.89" stop-color="#9B3DB7"/>
            <stop offset="1" stop-color="#8E32B3"/>
        </linearGradient>
        <linearGradient id="paint14_linear_7_13136" x1="1194.5" y1="1448.91" x2="1194.5" y2="175.28" gradientUnits="userSpaceOnUse">
            <stop stop-color="#FFFFE6"/>
            <stop offset="0.04" stop-color="#FFF2E4"/>
            <stop offset="0.19" stop-color="#FFBDDE"/>
            <stop offset="0.31" stop-color="#FF9CDA"/>
            <stop offset="0.37" stop-color="#FF90D8"/>
            <stop offset="0.41" stop-color="#F789D5"/>
            <stop offset="0.69" stop-color="#BE5AC3"/>
            <stop offset="0.89" stop-color="#9B3DB7"/>
            <stop offset="1" stop-color="#8E32B3"/>
        </linearGradient>
        <linearGradient id="paint15_linear_7_13136" x1="1472.99" y1="1445.82" x2="1472.99" y2="179.61" gradientUnits="userSpaceOnUse">
            <stop stop-color="#FFFFE6"/>
            <stop offset="0.04" stop-color="#FFF2E4"/>
            <stop offset="0.19" stop-color="#FFBDDE"/>
            <stop offset="0.31" stop-color="#FF9CDA"/>
            <stop offset="0.37" stop-color="#FF90D8"/>
            <stop offset="0.41" stop-color="#F789D5"/>
            <stop offset="0.69" stop-color="#BE5AC3"/>
            <stop offset="0.89" stop-color="#9B3DB7"/>
            <stop offset="1" stop-color="#8E32B3"/>
        </linearGradient>
        <linearGradient id="paint16_linear_7_13136" x1="1582.96" y1="1448.26" x2="1582.96" y2="175.837" gradientUnits="userSpaceOnUse">
            <stop stop-color="#FFFFE6"/>
            <stop offset="0.04" stop-color="#FFF2E4"/>
            <stop offset="0.19" stop-color="#FFBDDE"/>
            <stop offset="0.31" stop-color="#FF9CDA"/>
            <stop offset="0.37" stop-color="#FF90D8"/>
            <stop offset="0.41" stop-color="#F789D5"/>
            <stop offset="0.69" stop-color="#BE5AC3"/>
            <stop offset="0.89" stop-color="#9B3DB7"/>
            <stop offset="1" stop-color="#8E32B3"/>
        </linearGradient>
        <linearGradient id="paint17_linear_7_13136" x1="1622.51" y1="1449" x2="1622.51" y2="174.241" gradientUnits="userSpaceOnUse">
            <stop stop-color="#FFFFE6"/>
            <stop offset="0.04" stop-color="#FFF2E4"/>
            <stop offset="0.19" stop-color="#FFBDDE"/>
            <stop offset="0.31" stop-color="#FF9CDA"/>
            <stop offset="0.37" stop-color="#FF90D8"/>
            <stop offset="0.41" stop-color="#F789D5"/>
            <stop offset="0.69" stop-color="#BE5AC3"/>
            <stop offset="0.89" stop-color="#9B3DB7"/>
            <stop offset="1" stop-color="#8E32B3"/>
        </linearGradient>
        <linearGradient id="paint18_linear_7_13136" x1="635.944" y1="1447.96" x2="635.944" y2="176.336" gradientUnits="userSpaceOnUse">
            <stop stop-color="#FFFFE6"/>
            <stop offset="0.04" stop-color="#FFF2E4"/>
            <stop offset="0.19" stop-color="#FFBDDE"/>
            <stop offset="0.31" stop-color="#FF9CDA"/>
            <stop offset="0.37" stop-color="#FF90D8"/>
            <stop offset="0.41" stop-color="#F789D5"/>
            <stop offset="0.69" stop-color="#BE5AC3"/>
            <stop offset="0.89" stop-color="#9B3DB7"/>
            <stop offset="1" stop-color="#8E32B3"/>
        </linearGradient>
        <linearGradient id="paint19_linear_7_13136" x1="554.469" y1="1446.45" x2="554.469" y2="177.878" gradientUnits="userSpaceOnUse">
            <stop stop-color="#FFFFE6"/>
            <stop offset="0.04" stop-color="#FFF2E4"/>
            <stop offset="0.19" stop-color="#FFBDDE"/>
            <stop offset="0.31" stop-color="#FF9CDA"/>
            <stop offset="0.37" stop-color="#FF90D8"/>
            <stop offset="0.41" stop-color="#F789D5"/>
            <stop offset="0.69" stop-color="#BE5AC3"/>
            <stop offset="0.89" stop-color="#9B3DB7"/>
            <stop offset="1" stop-color="#8E32B3"/>
        </linearGradient>
        <linearGradient id="paint20_linear_7_13136" x1="819.993" y1="1170.92" x2="819.993" y2="132.325" gradientUnits="userSpaceOnUse">
            <stop stop-color="#FFFFE6"/>
            <stop offset="0.04" stop-color="#FFF2E4"/>
            <stop offset="0.19" stop-color="#FFBDDE"/>
            <stop offset="0.31" stop-color="#FF9CDA"/>
            <stop offset="0.37" stop-color="#FF90D8"/>
            <stop offset="0.41" stop-color="#F789D5"/>
            <stop offset="0.69" stop-color="#BE5AC3"/>
            <stop offset="0.89" stop-color="#9B3DB7"/>
            <stop offset="1" stop-color="#8E32B3"/>
        </linearGradient>
        <linearGradient id="paint21_linear_7_13136" x1="820" y1="1167.67" x2="820" y2="131.977" gradientUnits="userSpaceOnUse">
            <stop stop-color="#FFFFE6"/>
            <stop offset="0.04" stop-color="#FFF2E4"/>
            <stop offset="0.19" stop-color="#FFBDDE"/>
            <stop offset="0.31" stop-color="#FF9CDA"/>
            <stop offset="0.37" stop-color="#FF90D8"/>
            <stop offset="0.41" stop-color="#F789D5"/>
            <stop offset="0.69" stop-color="#BE5AC3"/>
            <stop offset="0.89" stop-color="#9B3DB7"/>
            <stop offset="1" stop-color="#8E32B3"/>
        </linearGradient>
        <linearGradient id="paint22_linear_7_13136" x1="820.015" y1="1163.81" x2="820.015" y2="133.629" gradientUnits="userSpaceOnUse">
            <stop stop-color="#FFFFE6"/>
            <stop offset="0.04" stop-color="#FFF2E4"/>
            <stop offset="0.19" stop-color="#FFBDDE"/>
            <stop offset="0.31" stop-color="#FF9CDA"/>
            <stop offset="0.37" stop-color="#FF90D8"/>
            <stop offset="0.41" stop-color="#F789D5"/>
            <stop offset="0.69" stop-color="#BE5AC3"/>
            <stop offset="0.89" stop-color="#9B3DB7"/>
            <stop offset="1" stop-color="#8E32B3"/>
        </linearGradient>
    </defs>
</svg>
