<svg width="1728" height="1016" viewBox="0 0 1728 1016" fill="none" xmlns="http://www.w3.org/2000/svg">
<g opacity="0.1">
<path d="M1779 75.1785C1753.84 76.1134 1726.96 75.7424 1711.77 76.3063C1634.8 79.1258 1577.84 85.9224 1509.89 100.154C1401.94 122.769 1290.26 126.524 1169.9 126.731C983.511 127.058 797.017 123.467 610.968 119.148C476.119 116.032 342.41 112.723 212.209 97.1856C159.38 90.8936 151.683 81.0401 113.819 68.0406C62.5879 50.4408 -25.9445 43.5404 -89.4315 36.6994C-119.865 33.4346 -149.899 30.1254 -179 26V63.9746C-95.7816 67.8329 8.98886 62.0157 59.9383 89.291C75.0662 97.3786 75.9987 105.481 98.7794 112.085C128.798 120.795 173.916 124.179 209.071 127.918C263.84 133.75 338.399 126.345 381.636 142.966C407.732 152.983 423.082 168.49 450.97 177.349C513.939 197.323 630.877 204.654 707.582 207.845C809.807 212.104 901.062 203.986 999.009 193.332C1078.16 184.725 1157.16 178.047 1237.16 170.953C1276.48 167.451 1339.74 164.187 1369.61 152.048C1385.7 145.503 1384.71 136.065 1401.13 130.085C1421.41 122.665 1460.19 121.671 1485.32 119.326C1523.54 115.75 1558.34 112.144 1595.14 107.009C1625.07 102.686 1655.29 100.815 1685.52 101.415C1714.34 102.083 1747.69 105.674 1779 105.763V75.1785Z" fill="url(#paint0_linear_223_4)"/>
<path d="M1779 846.271C1765.25 841.018 1753.54 833.633 1749.78 824.444C1760.81 820.833 1768.18 816.024 1779 812.309V773.42C1714.46 778.954 1652.49 778.57 1589.18 792.184C1486.76 814.218 1378.79 796.002 1273.54 808.861C1213.5 816.26 1159.46 825.272 1097.73 825.139C953.809 824.917 810.569 819.457 667.269 831.798C562.81 840.781 459.565 857.044 356.424 833.929C305.948 822.624 258.729 805.103 209.32 791.74C172.314 781.722 134.924 779.591 96.2462 774.633C75.7155 772.014 54.4597 765.754 33.5886 765.607C8.80981 765.399 -8.68636 770.875 -35.1822 766.894C-76.6283 760.664 -112.272 736.587 -152.475 733.391C-161.045 732.696 -169.926 732.266 -179 732V774.915C-165.263 775.745 -151.596 777.48 -138.087 780.109C-116.224 784.548 -106.321 794.907 -89.4913 800.826C-58.8065 811.584 2.28204 806.553 35.2612 809.601C92.7972 814.929 149.504 822.032 205.205 834.003C225.217 838.31 279.319 844.673 291.176 858.938C300.057 869.563 290.273 878.768 305.282 890.887C336.811 916.34 405.019 920.38 447.635 926.403C525.02 937.353 650.424 964.33 721.948 934.186C750.768 922.037 755.742 909.548 736.055 891.79C728.313 884.805 717.197 883.266 716.072 872.715C738.586 868.276 756.348 857.103 780.772 854.957C880.553 846.389 987.366 884.642 1087.59 866.47C1087.12 864.177 1088.61 860.374 1088.32 857.887C1140.51 848.165 1210.75 845.738 1262.63 857.887C1359.09 880.588 1461.55 903.066 1564.59 889.289C1596.58 885.012 1598.72 872.271 1622.56 863.008C1642.98 855.061 1665.48 856.763 1685.18 862.652C1717.16 872.212 1747.84 884.139 1778.91 895.297L1779 846.271Z" fill="url(#paint1_linear_223_4)"/>
<path d="M1779 435.915C1762.72 435.076 1746.32 433.928 1729.78 432.382C1663.96 426.186 1595.65 412.011 1528.85 409.42C1484.19 407.683 1399.67 411.231 1361.9 421.961C1331.4 430.616 1336.48 439.433 1295.45 442.171C1254.12 444.923 1207.66 439.094 1165.92 438.918C1125.42 438.726 1084.92 439.404 1044.44 438.918C965.338 437.917 894.451 438.918 816.489 445.335C766.163 449.457 715.969 457.332 665.021 458.171C567.121 459.79 479.879 437.107 386.641 427.393C229.015 410.995 43.9171 411.819 -115.796 418.561C-138.842 419.532 -159.328 420.106 -179 421.313V434.796C-100.949 438.329 -22.3511 440.095 55.9659 441.773C178.2 444.393 295.757 453.549 415.919 462.616C499.906 468.96 579.584 484.887 665.776 486.27C778.715 488.051 882.935 465.781 995.904 467.253C1053.72 468.062 1103.75 462.837 1160.07 458.774C1230.04 453.74 1297.08 474.171 1365.45 470.447C1422.18 467.37 1409.62 448.176 1443.08 437.74C1471.62 428.835 1548.65 441.273 1575.01 446.866C1618.96 456.184 1587.43 454.226 1597.72 467.576C1608.64 481.81 1649.28 491.967 1678.75 494.852C1709.83 497.898 1752.76 498.134 1779 492.732V435.915Z" fill="url(#paint2_linear_223_4)"/>
</g>
<circle cx="101" cy="189" r="3" fill="#9767BB"/>
<circle cx="335" cy="304" r="3" fill="#9767BB"/>
<circle cx="203" cy="528" r="3" fill="#9767BB"/>
<circle cx="86" cy="537" r="3" fill="#9767BB"/>
<circle cx="418" cy="674" r="3" fill="#9767BB"/>
<circle cx="738" cy="722" r="3" fill="#9767BB"/>
<circle cx="606" cy="837" r="3" fill="#9767BB"/>
<circle cx="694" cy="298" r="3" fill="#9767BB"/>
<circle cx="606" cy="41" r="3" fill="#9767BB"/>
<circle cx="954" cy="85" r="3" fill="#9767BB"/>
<circle cx="1131" cy="266" r="3" fill="#9767BB"/>
<circle cx="983" cy="406" r="3" fill="#9767BB"/>
<circle cx="861" cy="571" r="3" fill="#9767BB"/>
<circle cx="1009" cy="984" r="3" fill="#9767BB"/>
<circle cx="141" cy="1013" r="3" fill="#9767BB"/>
<circle cx="1497" cy="226" r="3" fill="#9767BB"/>
<circle cx="1378" cy="369" r="3" fill="#9767BB"/>
<circle cx="1674" cy="697" r="3" fill="#9767BB"/>
<circle cx="1538" cy="1006" r="3" fill="#9767BB"/>
<circle cx="1231" cy="680" r="3" fill="#9767BB"/>
<circle cx="1578.5" cy="825.5" r="1.5" transform="rotate(-180 1578.5 825.5)" fill="white"/>
<circle cx="1344.5" cy="710.5" r="1.5" transform="rotate(-180 1344.5 710.5)" fill="white"/>
<circle cx="1476.5" cy="486.5" r="1.5" transform="rotate(-180 1476.5 486.5)" fill="white"/>
<circle cx="1593.5" cy="477.5" r="1.5" transform="rotate(-180 1593.5 477.5)" fill="white"/>
<circle cx="1261.5" cy="340.5" r="1.5" transform="rotate(-180 1261.5 340.5)" fill="white"/>
<circle cx="941.5" cy="292.5" r="1.5" transform="rotate(-180 941.5 292.5)" fill="white"/>
<circle cx="1073.5" cy="177.5" r="1.5" transform="rotate(-180 1073.5 177.5)" fill="white"/>
<circle cx="985.5" cy="716.5" r="1.5" transform="rotate(-180 985.5 716.5)" fill="white"/>
<circle cx="1073.5" cy="973.5" r="1.5" transform="rotate(-180 1073.5 973.5)" fill="white"/>
<circle cx="725.5" cy="929.5" r="1.5" transform="rotate(-180 725.5 929.5)" fill="white"/>
<circle cx="548.5" cy="748.5" r="1.5" transform="rotate(-180 548.5 748.5)" fill="white"/>
<circle cx="696.5" cy="608.5" r="1.5" transform="rotate(-180 696.5 608.5)" fill="white"/>
<circle cx="818.5" cy="443.5" r="1.5" transform="rotate(-180 818.5 443.5)" fill="white"/>
<circle cx="670.5" cy="30.5" r="1.5" transform="rotate(-180 670.5 30.5)" fill="white"/>
<circle cx="1538.5" cy="1.5" r="1.5" transform="rotate(-180 1538.5 1.5)" fill="white"/>
<circle cx="182.5" cy="788.5" r="1.5" transform="rotate(-180 182.5 788.5)" fill="white"/>
<circle cx="301.5" cy="645.5" r="1.5" transform="rotate(-180 301.5 645.5)" fill="white"/>
<circle cx="5.5" cy="317.5" r="1.5" transform="rotate(-180 5.5 317.5)" fill="white"/>
<circle cx="141.5" cy="8.5" r="1.5" transform="rotate(-180 141.5 8.5)" fill="white"/>
<circle cx="448.5" cy="334.5" r="1.5" transform="rotate(-180 448.5 334.5)" fill="white"/>
<defs>
<linearGradient id="paint0_linear_223_4" x1="799.993" y1="1196.92" x2="799.993" y2="158.325" gradientUnits="userSpaceOnUse">
<stop stop-color="#FFFFE6"/>
<stop offset="0.04" stop-color="#FFF2E4"/>
<stop offset="0.19" stop-color="#FFBDDE"/>
<stop offset="0.31" stop-color="#FF9CDA"/>
<stop offset="0.37" stop-color="#FF90D8"/>
<stop offset="0.41" stop-color="#F789D5"/>
<stop offset="0.69" stop-color="#BE5AC3"/>
<stop offset="0.89" stop-color="#9B3DB7"/>
<stop offset="1" stop-color="#8E32B3"/>
</linearGradient>
<linearGradient id="paint1_linear_223_4" x1="800" y1="1801.67" x2="800" y2="765.977" gradientUnits="userSpaceOnUse">
<stop stop-color="#FFFFE6"/>
<stop offset="0.04" stop-color="#FFF2E4"/>
<stop offset="0.19" stop-color="#FFBDDE"/>
<stop offset="0.31" stop-color="#FF9CDA"/>
<stop offset="0.37" stop-color="#FF90D8"/>
<stop offset="0.41" stop-color="#F789D5"/>
<stop offset="0.69" stop-color="#BE5AC3"/>
<stop offset="0.89" stop-color="#9B3DB7"/>
<stop offset="1" stop-color="#8E32B3"/>
</linearGradient>
<linearGradient id="paint2_linear_223_4" x1="800.015" y1="1234.81" x2="800.015" y2="204.629" gradientUnits="userSpaceOnUse">
<stop stop-color="#FFFFE6"/>
<stop offset="0.04" stop-color="#FFF2E4"/>
<stop offset="0.19" stop-color="#FFBDDE"/>
<stop offset="0.31" stop-color="#FF9CDA"/>
<stop offset="0.37" stop-color="#FF90D8"/>
<stop offset="0.41" stop-color="#F789D5"/>
<stop offset="0.69" stop-color="#BE5AC3"/>
<stop offset="0.89" stop-color="#9B3DB7"/>
<stop offset="1" stop-color="#8E32B3"/>
</linearGradient>
</defs>
</svg>
