<svg width="206" height="116" viewBox="0 0 206 116" fill="none" xmlns="http://www.w3.org/2000/svg">
<path fill-rule="evenodd" clip-rule="evenodd" d="M9.23894 0V9.93013e-05H0V0H9.23894ZM12.3186 13.3452V8.21242H22.5841V0H181.699V8.21242H191.965V13.3452H200.177V23.6108H205.31V91.3629H199.15V102.655H191.965V110.867H182.726V116H23.6106V107.788H13.3451V102.655H5.13274V92.3893H0V23.6108H4.1062V13.3452H12.3186ZM205.31 9.93013e-05V0H195.044V9.93013e-05H205.31Z" fill="white"/>
<path fill-rule="evenodd" clip-rule="evenodd" d="M3 24V91H8V101H16V106H26V114H181V109H190V101H197V90H203V24H198V14H190V9H180V1H25V9H15V14H7V24H3Z" fill="#402F5C"/>
</svg>
