<svg width="329" height="116" viewBox="0 0 329 116" fill="none" xmlns="http://www.w3.org/2000/svg">
<path fill-rule="evenodd" clip-rule="evenodd" d="M9.23894 0V9.93052e-05H0V0H9.23894ZM12.3186 13.3452V8.21242H22.5841V0H306V8.21237H316.266V13.3452H324.478V23.6107H329V91.3628H323.451V102.655H316.266V110.867H307.027V116H23.6106V107.788H13.3451V102.655H5.13274V92.3894H0V23.6108H4.1062V13.3452H12.3186Z" fill="white"/>
<path fill-rule="evenodd" clip-rule="evenodd" d="M3 24V91H8V101H16V106H26V114H304V109H313V101H320V90H326V24H321V14H313V9H303V1H25V9H15V14H7V24H3Z" fill="#402F5C"/>
</svg>
