<svg width="49" height="48" viewBox="0 0 49 48" fill="none" xmlns="http://www.w3.org/2000/svg">
<path fill-rule="evenodd" clip-rule="evenodd" d="M20 0H29H31V4H38V12H45V20H49V29H45V38H38V44H31V48H29H25.7642V28.2324H32.7053V24.7618H25.7642V19.5561C25.7642 18.1754 26.3127 16.8513 27.2889 15.875C28.2652 14.8987 29.5893 14.3503 30.97 14.3503H32.7053V10.8797H30.97C28.6689 10.8797 26.462 11.7938 24.8349 13.421C23.2078 15.0481 22.2937 17.255 22.2937 19.5561V24.7618H15.3526V28.2324H22.2937V48H20H18V44H11V38H4V29H0V20H4V12H11V4H18V0H20Z" fill="#402F5C"/>
</svg>
