<svg width="53" height="52" viewBox="0 0 53 52" fill="none" xmlns="http://www.w3.org/2000/svg">
    <path fill-rule="evenodd" clip-rule="evenodd" d="M39 4V0.208457C38.1651 0.0705576 37.3151 0 36.4579 0H15.6579C14.761 0 13.8721 0.0772337 13 0.228018V4H9V9H3V13H0.275987C0.131718 13.8535 0.0578613 14.7229 0.0578613 15.6V36.4C0.0578613 37.2771 0.131718 38.1465 0.275986 39H3V43H9V48H13V51.772C13.8721 51.9228 14.761 52 15.6579 52H36.4579C37.3151 52 38.1651 51.9294 39 51.7915V48H43V43H49V39H51.8397C51.984 38.1465 52.0579 37.2771 52.0579 36.4V15.6C52.0579 14.7229 51.984 13.8535 51.8397 13H49V9H43V4H39ZM13.9245 26C13.9245 22.782 15.2029 19.6959 17.4783 17.4204C19.7537 15.145 22.8399 13.8667 26.0579 13.8667C29.2758 13.8667 32.362 15.145 34.6374 17.4204C36.9129 19.6959 38.1912 22.782 38.1912 26C38.1912 29.218 36.9129 32.3041 34.6374 34.5796C32.362 36.855 29.2758 38.1333 26.0579 38.1333C22.8399 38.1333 19.7537 36.855 17.4783 34.5796C15.2029 32.3041 13.9245 29.218 13.9245 26ZM38.1912 13.8667H41.6579V10.4H38.1912V13.8667ZM26.0579 17.3333C23.7593 17.3333 21.5549 18.2464 19.9296 19.8717C18.3043 21.4971 17.3912 23.7015 17.3912 26C17.3912 28.2985 18.3043 30.5029 19.9296 32.1283C21.5549 33.7536 23.7593 34.6667 26.0579 34.6667C28.3564 34.6667 30.5608 33.7536 32.1861 32.1283C33.8114 30.5029 34.7245 28.2985 34.7245 26C34.7245 23.7015 33.8114 21.4971 32.1861 19.8717C30.5608 18.2464 28.3564 17.3333 26.0579 17.3333Z" fill="#402F5C"/>
</svg>
