<svg width="78" height="64" viewBox="0 0 78 64" fill="none" xmlns="http://www.w3.org/2000/svg">
<path d="M54.6979 38.171V22.0957H49.3394H28.5379H23.1795V38.171H12.6733V54.2162H17.821V59.2284H33.8963H43.981H60.0563V54.2162H65.204V38.171H54.6979Z" fill="#684B9B"/>
<path d="M54.6979 33.2344V49.3248H49.3394H28.5379H23.1795V33.2344H12.6733V17.2043H17.821V12.177H33.8963H43.981H60.0563V17.2043H65.204V33.2344H54.6979Z" fill="#3C3485"/>
<path d="M26.3256 14.8109V10.0395H21.4037V5.17781H16.542V0H21.4037H26.5665V4.78646H31.4884V9.94922V14.8109H26.3256Z" fill="#006CA5"/>
<path d="M51.5524 14.8109V10.0395H56.4743V5.17781H61.3361V0H56.4743H51.3116V4.78646H46.3896V9.94922V14.8109H51.5524Z" fill="#006CA5"/>
<path d="M63.0669 54.2013H67.8534V59.1383H72.7151V64H77.8778V59.1383V53.9756H73.0914V49.0386H67.9286H63.0669V54.2013Z" fill="#006CA5"/>
<path d="M62.9316 33.234H67.7181V38.171H72.5798V43.0327H77.7426V38.171V33.0083H72.9561V28.0713H67.7934H62.9316V33.234Z" fill="#3C3485"/>
<path d="M14.8109 54.2013H10.0245V59.1383H5.16276V64H0V59.1383V53.9756H4.78646V49.0386H9.94921H14.8109V54.2013Z" fill="#006CA5"/>
<path d="M14.9462 33.234H10.1597V38.171H5.29801V43.0327H0.135254V38.171V33.0083H4.92172V28.0713H10.0845H14.9462V33.234Z" fill="#3C3485"/>
<path d="M31.4434 17.2495H27.2139V21.4791H31.4434V17.2495Z" fill="white"/>
<path d="M50.6646 17.2495H46.4351V21.4791H50.6646V17.2495Z" fill="white"/>
<path d="M44.3423 29.2156H33.5352V30.5853H44.3423V29.2156Z" fill="white"/>
<path d="M28.7186 43.6804H24.9707V52.7416H28.7186V43.6804Z" fill="white"/>
<path d="M34.7694 43.6804H31.0215V52.7416H34.7694V43.6804Z" fill="white"/>
<path d="M40.805 43.6804H37.0571V52.7416H40.805V43.6804Z" fill="white"/>
<path d="M46.8563 43.6804H43.1084V52.7416H46.8563V43.6804Z" fill="white"/>
<path d="M52.9066 43.6804H49.1587V52.7416H52.9066V43.6804Z" fill="white"/>
</svg>
