<svg width="1001" height="251" viewBox="0 0 1001 251" fill="none" xmlns="http://www.w3.org/2000/svg">
<path d="M32 251H939V229.491H907.786V223.759H939V221H32V223.759H70.1825V229.491H32V251ZM824.7 229.491V223.759H901.064V229.491H824.7ZM741.613 229.491V223.759H817.978V229.491H741.613ZM658.527 229.491V223.759H734.892V229.491H658.527ZM575.441 229.491V223.759H651.786V229.491H575.441ZM492.354 229.491V223.759H568.7V229.491H492.354ZM409.268 229.491V223.759H485.614V229.491H409.268ZM326.125 229.491V223.759H402.49V229.491H326.125ZM243.038 229.491V223.759H319.403V229.491H243.038ZM159.952 229.491V223.759H236.317V229.491H159.952ZM76.8658 229.491V223.759H153.345V229.491H76.8658Z" fill="#A76FAD"/>
<path d="M981.397 8H0V0H1001L981.397 8Z" fill="#402F5C"/>
</svg>
