<svg width="216" height="611" viewBox="0 0 216 611" fill="none" xmlns="http://www.w3.org/2000/svg">
<path d="M85.43 0.900024H0V609.67H85.43V0.900024Z" fill="#402F5C"/>
<path d="M67.99 451.67H107.19L121.7 500.08H154.17L174.22 610.9H64.57L67.99 451.67Z" fill="#402F5C"/>
<path d="M0 63.75H10.34L5.71997 26.47H0V63.75Z" fill="#402F5C"/>
<path d="M0 20.8V30.0101H0.219971L0 20.8Z" fill="#402F5C"/>
<path d="M75.09 395.37L100.57 381.29V337.83H160.38L177.57 322.21H208.41L215.81 315.17H75.09V395.37Z" fill="#402F5C"/>
<path d="M71.86 46.15H107.43V225.61L76.27 256.77L71.86 46.15Z" fill="#402F5C"/>
<path d="M47.82 216.06V0.900024H0V592.25H95.06L79.68 519.95H57.84V513.87H77.56V506.55H64.58L46.61 453.14H30.82V389.84H11.3V383.97H29L50.35 362.62V342.6H21.87V242.01L47.82 216.06Z" fill="url(#paint0_linear_216_3)"/>
<path d="M16.64 263.63H21.87V242.01L36.74 227.14V201.81H16.64V263.63Z" fill="url(#paint1_linear_216_3)"/>
<path d="M42.82 221.06H37.31V226.57L42.82 221.06Z" fill="url(#paint2_linear_216_3)"/>
<path d="M47.81 49.9H36.35V136.68H47.81V49.9Z" fill="url(#paint3_linear_216_3)"/>
<path d="M0 0.900024V184.77H12.32V149.78H30.35V90.07H22.74V24.66H0.950012V0.900024H0Z" fill="url(#paint4_linear_216_3)"/>
<path d="M14.82 225.99H0V312.95H14.82V225.99Z" fill="url(#paint5_linear_216_3)"/>
<path d="M31.87 522.62H27.63V535.65H31.87V522.62Z" fill="url(#paint6_linear_216_3)"/>
<path d="M32.17 496.62H57.09V484.3L46.61 453.14H30.82V389.84H11.3V383.97H29L50.35 362.62V342.6H30.41V359.9H6.70001V456.63H32.17V496.62Z" fill="url(#paint7_linear_216_3)"/>
<path d="M17.27 466.21H7.81V495.31H17.27V466.21Z" fill="url(#paint8_linear_216_3)"/>
<path d="M4.08002 351.11H0V435.84H4.08002V351.11Z" fill="url(#paint9_linear_216_3)"/>
<path d="M42.5 522.6V558.49H42.11V537.2H26.32V558.49H21.8V557.16H8.65002V592.25H43.29V572.11H58.6V522.6H42.5Z" fill="url(#paint10_linear_216_3)"/>
<path d="M3.97998 455.27H0V475.9H3.97998V455.27Z" fill="url(#paint11_linear_216_3)"/>
<path d="M7.57001 320.67H0V324.66H7.57001V320.67Z" fill="url(#paint12_linear_216_3)"/>
<path d="M12.92 253.1H4.77997V255.87H12.92V253.1Z" fill="url(#paint13_linear_216_3)"/>
<path d="M6.96997 117.64H0V121.31H6.96997V117.64Z" fill="url(#paint14_linear_216_3)"/>
<path d="M13.3 270.52H2.44V274.21H13.3V270.52Z" fill="url(#paint15_linear_216_3)"/>
<path d="M4.02997 190.2H0V196.2H4.02997V190.2Z" fill="url(#paint16_linear_216_3)"/>
<path d="M3.72998 136.17H0V142.62H3.72998V136.17Z" fill="url(#paint17_linear_216_3)"/>
<path d="M3.51001 237.68H0V243.71H3.51001V237.68Z" fill="url(#paint18_linear_216_3)"/>
<path d="M3.94 70.7H0V74.71H3.94V70.7Z" fill="url(#paint19_linear_216_3)"/>
<path d="M27.08 96.77H12.76V101.64H27.08V96.77Z" fill="url(#paint20_linear_216_3)"/>
<path d="M19.48 61.05H8.10999V64.92H19.48V61.05Z" fill="url(#paint21_linear_216_3)"/>
<path d="M30.18 382.79H26.17V383.97H29L30.18 382.79Z" fill="url(#paint22_linear_216_3)"/>
<path d="M31.96 231.92H18.88V236.98H26.9L31.96 231.92Z" fill="url(#paint23_linear_216_3)"/>
<path d="M14.28 125.87H4.01001V129.36H14.28V125.87Z" fill="url(#paint24_linear_216_3)"/>
<path d="M15.65 404.86H0V411.35H15.65V404.86Z" fill="url(#paint25_linear_216_3)"/>
<path d="M22.68 413.69H22.14V418.67H30.82V412.15H22.68V413.69Z" fill="url(#paint26_linear_216_3)"/>
<path d="M44.78 149.25H31.19V153.87H44.78V149.25Z" fill="url(#paint27_linear_216_3)"/>
<path d="M29.43 389.84H14.73V393.83H26.01V398.71H30.82V393.37H29.43V389.84Z" fill="url(#paint28_linear_216_3)"/>
<path d="M42.06 360.65H26.25V366.03H42.06V360.65Z" fill="url(#paint29_linear_216_3)"/>
<path d="M22.19 344.22H17.12V345.94H22.19V344.22Z" fill="url(#paint30_linear_216_3)"/>
<path d="M5.42999 356.27H0V358.99H5.42999V356.27Z" fill="url(#paint31_linear_216_3)"/>
<path d="M3.56 364.1H0V369.62H3.56V364.1Z" fill="url(#paint32_linear_216_3)"/>
<path d="M34.55 82.9199H28.02V85.14H34.55V82.9199Z" fill="url(#paint33_linear_216_3)"/>
<path d="M18 326.94H0V333.37H18V326.94Z" fill="url(#paint34_linear_216_3)"/>
<path d="M41.26 113.2H26.07V118.37H41.26V113.2Z" fill="url(#paint35_linear_216_3)"/>
<path d="M40.71 124.03H29.38V127.88H40.71V124.03Z" fill="url(#paint36_linear_216_3)"/>
<path d="M14.77 35.3599H32.79V30.0099H40.43V24.9199H25.44V29.2299H19.92V26.8499H11.06V29.8599H14.77V35.3599Z" fill="url(#paint37_linear_216_3)"/>
<path d="M22.45 36.96H3.91998V43.2599H22.45V36.96Z" fill="url(#paint38_linear_216_3)"/>
<path d="M42.83 47.3101H37.39V49.16H42.83V47.3101Z" fill="url(#paint39_linear_216_3)"/>
<path d="M25.4 228H21.69V229.26H25.4V228Z" fill="url(#paint40_linear_216_3)"/>
<path d="M21.87 335.42H10.12V341.25H21.87V335.42Z" fill="url(#paint41_linear_216_3)"/>
<path d="M31.09 167.84H21.51V171.1H31.09V167.84Z" fill="url(#paint42_linear_216_3)"/>
<path d="M32.21 223.59H25.45V225.89H32.21V223.59Z" fill="url(#paint43_linear_216_3)"/>
<path d="M31.43 131.85H16.87V136.8H31.43V131.85Z" fill="url(#paint44_linear_216_3)"/>
<path d="M0 472.75H57.09L52.88 456.71H0V472.75Z" fill="#C265AF"/>
<path d="M58.94 475.04H20.83V477.23H58.94V475.04Z" fill="#402F5C"/>
<path d="M48.89 500.72H0V502.91H48.89V500.72Z" fill="#402F5C"/>
<path d="M7.59998 0.900024V198.52L0 206.13V209.22L9.78998 199.43V0.900024H7.59998Z" fill="#402F5C"/>
<path d="M0 571.09V582.99L1.21002 583.35V570.73L0 571.09Z" fill="#C265AF"/>
<path d="M0 467.22V494.26L4.73999 495.67V465.81L0 467.22Z" fill="#C265AF"/>
<path d="M10.19 513.29V530.77L21.96 527.27V516.79L10.19 513.29Z" fill="#C265AF"/>
<path d="M12.65 559.13V494.26L0 491.34V515.88L8.60999 517.92V546.46L0 548.49V588.57H12.65V569.71L4.31 567.24V561.61L12.65 559.13Z" fill="#C265AF"/>
<path d="M0 461.92V469.49L12.65 466.35V461.92H0Z" fill="#C265AF"/>
<path d="M10.59 502.03L19.94 500.09V461.92H17.44V493.07L9.98999 494.61L10.59 502.03Z" fill="#C265AF"/>
<path d="M0 585.87V591.98H19.94V590L0 585.87Z" fill="#C265AF"/>
<path d="M122.52 160.39H69.05V178.58H122.52V160.39Z" fill="#402F5C"/>
<path d="M122.52 137.4H69.05V155.59H122.52V137.4Z" fill="#402F5C"/>
<path d="M122.52 114.41H69.05V132.6H122.52V114.41Z" fill="#402F5C"/>
<path d="M122.52 91.4099H69.05V109.6H122.52V91.4099Z" fill="#402F5C"/>
<path d="M122.52 68.4199H69.05V86.6099H122.52V68.4199Z" fill="#402F5C"/>
<path d="M35.63 42.0601H33.12V52.67H35.63V42.0601Z" fill="url(#paint45_linear_216_3)"/>
<path d="M23.32 42.0601H20.81V52.67H23.32V42.0601Z" fill="url(#paint46_linear_216_3)"/>
<path d="M21.67 423.93H19.16V434.54H21.67V423.93Z" fill="url(#paint47_linear_216_3)"/>
<path d="M9.94 258.12H7.42999V268.73H9.94V258.12Z" fill="url(#paint48_linear_216_3)"/>
<path d="M5.87 42.0601H3.35999V52.67H5.87V42.0601Z" fill="url(#paint49_linear_216_3)"/>
<path d="M6.03998 288.83H3.52997V299.44H6.03998V288.83Z" fill="url(#paint50_linear_216_3)"/>
<defs>
<linearGradient id="paint0_linear_216_3" x1="47.53" y1="961.84" x2="47.53" y2="-440.7" gradientUnits="userSpaceOnUse">
<stop stop-color="#C165B4"/>
<stop offset="0.55" stop-color="#774584"/>
<stop offset="1" stop-color="#3F2D60"/>
</linearGradient>
<linearGradient id="paint1_linear_216_3" x1="26.69" y1="866.37" x2="26.69" y2="-536.16" gradientUnits="userSpaceOnUse">
<stop stop-color="#C165B4"/>
<stop offset="0.55" stop-color="#774584"/>
<stop offset="1" stop-color="#3F2D60"/>
</linearGradient>
<linearGradient id="paint2_linear_216_3" x1="40.07" y1="866.381" x2="40.07" y2="-536.171" gradientUnits="userSpaceOnUse">
<stop stop-color="#C165B4"/>
<stop offset="0.55" stop-color="#774584"/>
<stop offset="1" stop-color="#3F2D60"/>
</linearGradient>
<linearGradient id="paint3_linear_216_3" x1="42.09" y1="866.37" x2="42.09" y2="-536.16" gradientUnits="userSpaceOnUse">
<stop stop-color="#C165B4"/>
<stop offset="0.55" stop-color="#774584"/>
<stop offset="1" stop-color="#3F2D60"/>
</linearGradient>
<linearGradient id="paint4_linear_216_3" x1="15.17" y1="866.37" x2="15.17" y2="-536.16" gradientUnits="userSpaceOnUse">
<stop stop-color="#C165B4"/>
<stop offset="0.55" stop-color="#774584"/>
<stop offset="1" stop-color="#3F2D60"/>
</linearGradient>
<linearGradient id="paint5_linear_216_3" x1="7.40998" y1="866.37" x2="7.40998" y2="-536.16" gradientUnits="userSpaceOnUse">
<stop stop-color="#C165B4"/>
<stop offset="0.55" stop-color="#774584"/>
<stop offset="1" stop-color="#3F2D60"/>
</linearGradient>
<linearGradient id="paint6_linear_216_3" x1="29.75" y1="866.371" x2="29.75" y2="-536.162" gradientUnits="userSpaceOnUse">
<stop stop-color="#C165B4"/>
<stop offset="0.55" stop-color="#774584"/>
<stop offset="1" stop-color="#3F2D60"/>
</linearGradient>
<linearGradient id="paint7_linear_216_3" x1="31.9" y1="866.37" x2="31.9" y2="-536.16" gradientUnits="userSpaceOnUse">
<stop stop-color="#C165B4"/>
<stop offset="0.55" stop-color="#774584"/>
<stop offset="1" stop-color="#3F2D60"/>
</linearGradient>
<linearGradient id="paint8_linear_216_3" x1="12.54" y1="866.371" x2="12.54" y2="-536.163" gradientUnits="userSpaceOnUse">
<stop stop-color="#C165B4"/>
<stop offset="0.55" stop-color="#774584"/>
<stop offset="1" stop-color="#3F2D60"/>
</linearGradient>
<linearGradient id="paint9_linear_216_3" x1="2.04005" y1="866.37" x2="2.04005" y2="-536.17" gradientUnits="userSpaceOnUse">
<stop stop-color="#C165B4"/>
<stop offset="0.55" stop-color="#774584"/>
<stop offset="1" stop-color="#3F2D60"/>
</linearGradient>
<linearGradient id="paint10_linear_216_3" x1="33.63" y1="866.37" x2="33.63" y2="-536.16" gradientUnits="userSpaceOnUse">
<stop stop-color="#C165B4"/>
<stop offset="0.55" stop-color="#774584"/>
<stop offset="1" stop-color="#3F2D60"/>
</linearGradient>
<linearGradient id="paint11_linear_216_3" x1="1.99002" y1="866.37" x2="1.99002" y2="-536.16" gradientUnits="userSpaceOnUse">
<stop stop-color="#C165B4"/>
<stop offset="0.55" stop-color="#774584"/>
<stop offset="1" stop-color="#3F2D60"/>
</linearGradient>
<linearGradient id="paint12_linear_216_3" x1="3.78002" y1="612.579" x2="3.78002" y2="-336.408" gradientUnits="userSpaceOnUse">
<stop stop-color="#C165B4"/>
<stop offset="0.55" stop-color="#774584"/>
<stop offset="1" stop-color="#3F2D60"/>
</linearGradient>
<linearGradient id="paint13_linear_216_3" x1="8.84997" y1="612.592" x2="8.84997" y2="-336.424" gradientUnits="userSpaceOnUse">
<stop stop-color="#C165B4"/>
<stop offset="0.55" stop-color="#774584"/>
<stop offset="1" stop-color="#3F2D60"/>
</linearGradient>
<linearGradient id="paint14_linear_216_3" x1="3.47999" y1="612.578" x2="3.47999" y2="-336.408" gradientUnits="userSpaceOnUse">
<stop stop-color="#C165B4"/>
<stop offset="0.55" stop-color="#774584"/>
<stop offset="1" stop-color="#3F2D60"/>
</linearGradient>
<linearGradient id="paint15_linear_216_3" x1="7.86999" y1="612.58" x2="7.86999" y2="-336.41" gradientUnits="userSpaceOnUse">
<stop stop-color="#C165B4"/>
<stop offset="0.55" stop-color="#774584"/>
<stop offset="1" stop-color="#3F2D60"/>
</linearGradient>
<linearGradient id="paint16_linear_216_3" x1="2.00999" y1="612.58" x2="2.00999" y2="-336.41" gradientUnits="userSpaceOnUse">
<stop stop-color="#C165B4"/>
<stop offset="0.55" stop-color="#774584"/>
<stop offset="1" stop-color="#3F2D60"/>
</linearGradient>
<linearGradient id="paint17_linear_216_3" x1="1.85999" y1="612.581" x2="1.85999" y2="-336.411" gradientUnits="userSpaceOnUse">
<stop stop-color="#C165B4"/>
<stop offset="0.55" stop-color="#774584"/>
<stop offset="1" stop-color="#3F2D60"/>
</linearGradient>
<linearGradient id="paint18_linear_216_3" x1="1.74999" y1="612.582" x2="1.74999" y2="-336.413" gradientUnits="userSpaceOnUse">
<stop stop-color="#C165B4"/>
<stop offset="0.55" stop-color="#774584"/>
<stop offset="1" stop-color="#3F2D60"/>
</linearGradient>
<linearGradient id="paint19_linear_216_3" x1="1.97" y1="612.581" x2="1.97" y2="-336.401" gradientUnits="userSpaceOnUse">
<stop stop-color="#C165B4"/>
<stop offset="0.55" stop-color="#774584"/>
<stop offset="1" stop-color="#3F2D60"/>
</linearGradient>
<linearGradient id="paint20_linear_216_3" x1="19.93" y1="612.569" x2="19.93" y2="-336.4" gradientUnits="userSpaceOnUse">
<stop stop-color="#C165B4"/>
<stop offset="0.55" stop-color="#774584"/>
<stop offset="1" stop-color="#3F2D60"/>
</linearGradient>
<linearGradient id="paint21_linear_216_3" x1="13.79" y1="612.579" x2="13.79" y2="-336.399" gradientUnits="userSpaceOnUse">
<stop stop-color="#C165B4"/>
<stop offset="0.55" stop-color="#774584"/>
<stop offset="1" stop-color="#3F2D60"/>
</linearGradient>
<linearGradient id="paint22_linear_216_3" x1="28.18" y1="612.579" x2="28.18" y2="-336.396" gradientUnits="userSpaceOnUse">
<stop stop-color="#C165B4"/>
<stop offset="0.55" stop-color="#774584"/>
<stop offset="1" stop-color="#3F2D60"/>
</linearGradient>
<linearGradient id="paint23_linear_216_3" x1="25.43" y1="612.58" x2="25.43" y2="-336.41" gradientUnits="userSpaceOnUse">
<stop stop-color="#C165B4"/>
<stop offset="0.55" stop-color="#774584"/>
<stop offset="1" stop-color="#3F2D60"/>
</linearGradient>
<linearGradient id="paint24_linear_216_3" x1="9.13996" y1="612.589" x2="9.13996" y2="-336.409" gradientUnits="userSpaceOnUse">
<stop stop-color="#C165B4"/>
<stop offset="0.55" stop-color="#774584"/>
<stop offset="1" stop-color="#3F2D60"/>
</linearGradient>
<linearGradient id="paint25_linear_216_3" x1="7.82001" y1="612.58" x2="7.82001" y2="-336.409" gradientUnits="userSpaceOnUse">
<stop stop-color="#C165B4"/>
<stop offset="0.55" stop-color="#774584"/>
<stop offset="1" stop-color="#3F2D60"/>
</linearGradient>
<linearGradient id="paint26_linear_216_3" x1="26.48" y1="612.579" x2="26.48" y2="-336.405" gradientUnits="userSpaceOnUse">
<stop stop-color="#C165B4"/>
<stop offset="0.55" stop-color="#774584"/>
<stop offset="1" stop-color="#3F2D60"/>
</linearGradient>
<linearGradient id="paint27_linear_216_3" x1="37.98" y1="612.579" x2="37.98" y2="-336.409" gradientUnits="userSpaceOnUse">
<stop stop-color="#C165B4"/>
<stop offset="0.55" stop-color="#774584"/>
<stop offset="1" stop-color="#3F2D60"/>
</linearGradient>
<linearGradient id="paint28_linear_216_3" x1="22.78" y1="612.58" x2="22.78" y2="-336.399" gradientUnits="userSpaceOnUse">
<stop stop-color="#C165B4"/>
<stop offset="0.55" stop-color="#774584"/>
<stop offset="1" stop-color="#3F2D60"/>
</linearGradient>
<linearGradient id="paint29_linear_216_3" x1="34.16" y1="612.58" x2="34.16" y2="-336.401" gradientUnits="userSpaceOnUse">
<stop stop-color="#C165B4"/>
<stop offset="0.55" stop-color="#774584"/>
<stop offset="1" stop-color="#3F2D60"/>
</linearGradient>
<linearGradient id="paint30_linear_216_3" x1="19.66" y1="612.585" x2="19.66" y2="-336.413" gradientUnits="userSpaceOnUse">
<stop stop-color="#C165B4"/>
<stop offset="0.55" stop-color="#774584"/>
<stop offset="1" stop-color="#3F2D60"/>
</linearGradient>
<linearGradient id="paint31_linear_216_3" x1="2.71002" y1="612.577" x2="2.71002" y2="-336.393" gradientUnits="userSpaceOnUse">
<stop stop-color="#C165B4"/>
<stop offset="0.55" stop-color="#774584"/>
<stop offset="1" stop-color="#3F2D60"/>
</linearGradient>
<linearGradient id="paint32_linear_216_3" x1="1.78002" y1="612.581" x2="1.78002" y2="-336.413" gradientUnits="userSpaceOnUse">
<stop stop-color="#C165B4"/>
<stop offset="0.55" stop-color="#774584"/>
<stop offset="1" stop-color="#3F2D60"/>
</linearGradient>
<linearGradient id="paint33_linear_216_3" x1="31.28" y1="612.588" x2="31.28" y2="-336.406" gradientUnits="userSpaceOnUse">
<stop stop-color="#C165B4"/>
<stop offset="0.55" stop-color="#774584"/>
<stop offset="1" stop-color="#3F2D60"/>
</linearGradient>
<linearGradient id="paint34_linear_216_3" x1="9.00001" y1="612.58" x2="9.00001" y2="-336.399" gradientUnits="userSpaceOnUse">
<stop stop-color="#C165B4"/>
<stop offset="0.55" stop-color="#774584"/>
<stop offset="1" stop-color="#3F2D60"/>
</linearGradient>
<linearGradient id="paint35_linear_216_3" x1="33.66" y1="612.568" x2="33.66" y2="-336.399" gradientUnits="userSpaceOnUse">
<stop stop-color="#C165B4"/>
<stop offset="0.55" stop-color="#774584"/>
<stop offset="1" stop-color="#3F2D60"/>
</linearGradient>
<linearGradient id="paint36_linear_216_3" x1="35.05" y1="612.577" x2="35.05" y2="-336.397" gradientUnits="userSpaceOnUse">
<stop stop-color="#C165B4"/>
<stop offset="0.55" stop-color="#774584"/>
<stop offset="1" stop-color="#3F2D60"/>
</linearGradient>
<linearGradient id="paint37_linear_216_3" x1="25.75" y1="612.58" x2="25.75" y2="-336.41" gradientUnits="userSpaceOnUse">
<stop stop-color="#C165B4"/>
<stop offset="0.55" stop-color="#774584"/>
<stop offset="1" stop-color="#3F2D60"/>
</linearGradient>
<linearGradient id="paint38_linear_216_3" x1="13.19" y1="612.569" x2="13.19" y2="-336.399" gradientUnits="userSpaceOnUse">
<stop stop-color="#C165B4"/>
<stop offset="0.55" stop-color="#774584"/>
<stop offset="1" stop-color="#3F2D60"/>
</linearGradient>
<linearGradient id="paint39_linear_216_3" x1="40.11" y1="612.583" x2="40.11" y2="-336.405" gradientUnits="userSpaceOnUse">
<stop stop-color="#C165B4"/>
<stop offset="0.55" stop-color="#774584"/>
<stop offset="1" stop-color="#3F2D60"/>
</linearGradient>
<linearGradient id="paint40_linear_216_3" x1="23.54" y1="612.573" x2="23.54" y2="-336.394" gradientUnits="userSpaceOnUse">
<stop stop-color="#C165B4"/>
<stop offset="0.55" stop-color="#774584"/>
<stop offset="1" stop-color="#3F2D60"/>
</linearGradient>
<linearGradient id="paint41_linear_216_3" x1="16" y1="612.581" x2="16" y2="-336.402" gradientUnits="userSpaceOnUse">
<stop stop-color="#C165B4"/>
<stop offset="0.55" stop-color="#774584"/>
<stop offset="1" stop-color="#3F2D60"/>
</linearGradient>
<linearGradient id="paint42_linear_216_3" x1="26.3" y1="612.573" x2="26.3" y2="-336.402" gradientUnits="userSpaceOnUse">
<stop stop-color="#C165B4"/>
<stop offset="0.55" stop-color="#774584"/>
<stop offset="1" stop-color="#3F2D60"/>
</linearGradient>
<linearGradient id="paint43_linear_216_3" x1="28.83" y1="612.568" x2="28.83" y2="-336.387" gradientUnits="userSpaceOnUse">
<stop stop-color="#C165B4"/>
<stop offset="0.55" stop-color="#774584"/>
<stop offset="1" stop-color="#3F2D60"/>
</linearGradient>
<linearGradient id="paint44_linear_216_3" x1="24.15" y1="612.581" x2="24.15" y2="-336.401" gradientUnits="userSpaceOnUse">
<stop stop-color="#C165B4"/>
<stop offset="0.55" stop-color="#774584"/>
<stop offset="1" stop-color="#3F2D60"/>
</linearGradient>
<linearGradient id="paint45_linear_216_3" x1="34.37" y1="489.529" x2="34.37" y2="-502.079" gradientUnits="userSpaceOnUse">
<stop stop-color="#F4FFDB"/>
<stop offset="0.05" stop-color="#E2FCD6"/>
<stop offset="0.21" stop-color="#B2F6C9"/>
<stop offset="0.33" stop-color="#94F2C1"/>
<stop offset="0.39" stop-color="#89F0BE"/>
<stop offset="0.48" stop-color="#7FEABB"/>
<stop offset="0.62" stop-color="#64D9B3"/>
<stop offset="0.8" stop-color="#38BEA6"/>
<stop offset="1" stop-color="#009C96"/>
</linearGradient>
<linearGradient id="paint46_linear_216_3" x1="22.07" y1="489.529" x2="22.07" y2="-502.079" gradientUnits="userSpaceOnUse">
<stop stop-color="#F4FFDB"/>
<stop offset="0.05" stop-color="#E2FCD6"/>
<stop offset="0.21" stop-color="#B2F6C9"/>
<stop offset="0.33" stop-color="#94F2C1"/>
<stop offset="0.39" stop-color="#89F0BE"/>
<stop offset="0.48" stop-color="#7FEABB"/>
<stop offset="0.62" stop-color="#64D9B3"/>
<stop offset="0.8" stop-color="#38BEA6"/>
<stop offset="1" stop-color="#009C96"/>
</linearGradient>
<linearGradient id="paint47_linear_216_3" x1="20.42" y1="489.53" x2="20.42" y2="-502.084" gradientUnits="userSpaceOnUse">
<stop stop-color="#F4FFDB"/>
<stop offset="0.05" stop-color="#E2FCD6"/>
<stop offset="0.21" stop-color="#B2F6C9"/>
<stop offset="0.33" stop-color="#94F2C1"/>
<stop offset="0.39" stop-color="#89F0BE"/>
<stop offset="0.48" stop-color="#7FEABB"/>
<stop offset="0.62" stop-color="#64D9B3"/>
<stop offset="0.8" stop-color="#38BEA6"/>
<stop offset="1" stop-color="#009C96"/>
</linearGradient>
<linearGradient id="paint48_linear_216_3" x1="8.68999" y1="489.53" x2="8.68999" y2="-502.079" gradientUnits="userSpaceOnUse">
<stop stop-color="#F4FFDB"/>
<stop offset="0.05" stop-color="#E2FCD6"/>
<stop offset="0.21" stop-color="#B2F6C9"/>
<stop offset="0.33" stop-color="#94F2C1"/>
<stop offset="0.39" stop-color="#89F0BE"/>
<stop offset="0.48" stop-color="#7FEABB"/>
<stop offset="0.62" stop-color="#64D9B3"/>
<stop offset="0.8" stop-color="#38BEA6"/>
<stop offset="1" stop-color="#009C96"/>
</linearGradient>
<linearGradient id="paint49_linear_216_3" x1="4.61998" y1="489.529" x2="4.61998" y2="-502.079" gradientUnits="userSpaceOnUse">
<stop stop-color="#F4FFDB"/>
<stop offset="0.05" stop-color="#E2FCD6"/>
<stop offset="0.21" stop-color="#B2F6C9"/>
<stop offset="0.33" stop-color="#94F2C1"/>
<stop offset="0.39" stop-color="#89F0BE"/>
<stop offset="0.48" stop-color="#7FEABB"/>
<stop offset="0.62" stop-color="#64D9B3"/>
<stop offset="0.8" stop-color="#38BEA6"/>
<stop offset="1" stop-color="#009C96"/>
</linearGradient>
<linearGradient id="paint50_linear_216_3" x1="4.77996" y1="489.53" x2="4.77996" y2="-502.069" gradientUnits="userSpaceOnUse">
<stop stop-color="#F4FFDB"/>
<stop offset="0.05" stop-color="#E2FCD6"/>
<stop offset="0.21" stop-color="#B2F6C9"/>
<stop offset="0.33" stop-color="#94F2C1"/>
<stop offset="0.39" stop-color="#89F0BE"/>
<stop offset="0.48" stop-color="#7FEABB"/>
<stop offset="0.62" stop-color="#64D9B3"/>
<stop offset="0.8" stop-color="#38BEA6"/>
<stop offset="1" stop-color="#009C96"/>
</linearGradient>
</defs>
</svg>
