<svg width="197" height="194" viewBox="0 0 197 194" fill="none" xmlns="http://www.w3.org/2000/svg">
<path fill-rule="evenodd" clip-rule="evenodd" d="M38.65 86.3043V83.2009H79.7706V79.7095H115.072V83.2009H158.52V86.3043H173.65V92.5112H183.348V95.2267H190.331V102.985H193.046V116.951H187.615V120.83H180.632V125.485H173.65V129.365H163.176V133.632H132.141V136.347H63.4776V133.632H35.9345V129.365H25.8483V125.485H13.8225V120.83H9.16735V116.951H3.73633V102.985H9.16735V98.3302H13.8225V92.5112H29.3397V86.3043H38.65ZM22.7449 96.3909H36.3225V92.5116H46.7966V88.2444H84.8138H121.279V90.572H143.779V92.5116H157.745V96.3909H167.055V100.658H177.917V104.537H181.796V111.132H174.814V116.563H169.77V121.994H157.745V126.649H127.874V129.753H72.4V126.649H39.4259V121.994H28.9518V116.563H22.7449V113.072H14.2105V104.537H19.6415V100.658H22.7449V96.3909Z" fill="#87D2EF"/>
<path fill-rule="evenodd" clip-rule="evenodd" d="M51.1124 124.749V122.309H83.4408V119.564H111.194V122.309H145.353V124.749H157.247V129.629H164.872V131.763H170.361V137.863H172.496V148.843H168.226V151.892H162.737V155.552H157.247V158.602H149.012V161.957H124.614V164.092H70.6314V161.957H48.9775V158.602H41.0479V155.552H31.5934V151.892H27.9336V148.843H23.6638V137.863H27.9336V134.203H31.5934V129.629H43.7928V124.749H51.1124ZM38.6081 132.679H49.2826V129.629H57.5172V126.274H87.4057H116.074V128.104H133.763V129.629H144.743V132.679H152.062V136.034H160.602V139.083H163.652V144.268H158.162V148.538H154.197V152.808H144.743V156.468H121.259V158.907H77.6462V156.468H51.7225V152.808H43.4879V148.538H38.6081V145.793H31.8985V139.083H36.1683V136.034H38.6081V132.679Z" fill="#87D2EF"/>
<path fill-rule="evenodd" clip-rule="evenodd" d="M66.9486 152.927V151.293H88.5911V149.456H107.171V151.293H130.038V152.927H138.001V156.193H143.105V157.623H146.781V161.706H148.21V169.056H145.351V171.098H141.676V173.548H138.001V175.59H132.488V177.836H116.155V179.265H80.0158V177.836H65.5194V175.59H60.2109V173.548H53.8815V171.098H51.4314V169.056H48.573V161.706H51.4314V159.256H53.8815V156.193H62.0485V152.927H66.9486ZM58.5775 158.235H65.7236V156.193H71.2363V153.947H91.2453H110.438V155.172H122.28V156.193H129.63V158.235H134.53V160.481H140.247V162.523H142.289V165.994H138.614V168.852H135.959V171.71H129.63V174.161H113.909V175.794H84.7118V174.161H67.357V171.71H61.8443V168.852H58.5775V167.014H54.0857V162.523H56.9441V160.481H58.5775V158.235Z" fill="#87D2EF"/>
<path fill-rule="evenodd" clip-rule="evenodd" d="M80.1968 172.803V171.874H92.5059V170.828H103.073V171.874H116.079V172.803H120.608V174.661H123.511V175.473H125.601V177.796H126.414V181.976H124.788V183.138H122.698V184.531H120.608V185.692H117.472V186.97H108.183V187.783H87.6287V186.97H79.3839V185.692H76.3647V184.531H72.7648V183.138H71.3713V181.976H69.7456V177.796H71.3713V176.402H72.7648V174.661H77.4098V172.803H80.1968ZM75.4358 175.822H79.5001V174.661H82.6354V173.383H94.0156H104.931V174.08H111.666V174.661H115.847V175.822H118.634V177.099H121.885V178.261H123.047V180.235H120.956V181.86H119.447V183.486H115.847V184.88H106.905V185.809H90.2996V184.88H80.4291V183.486H77.2937V181.86H75.4358V180.815H72.881V178.261H74.5068V177.099H75.4358V175.822Z" fill="#87D2EF"/>
<path fill-rule="evenodd" clip-rule="evenodd" d="M87.7641 185.089V184.576H94.553V184H100.381V184.576H107.554V185.089H110.052V186.114H111.653V186.562H112.806V187.843H113.254V190.148H112.358V190.789H111.205V191.557H110.052V192.198H108.323V192.902H103.199V193.351H91.8631V192.902H87.3158V192.198H85.6506V191.557H83.6652V190.789H82.8966V190.148H82V187.843H82.8966V187.074H83.6652V186.114H86.227V185.089H87.7641ZM85.1382 186.754H87.3798V186.114H89.109V185.409H95.3855H101.406V185.793H105.121V186.114H107.426V186.754H108.963V187.459H110.757V188.099H111.397V189.188H110.244V190.084H109.412V190.981H107.426V191.75H102.495V192.262H93.3361V191.75H87.8922V190.981H86.1629V190.084H85.1382V189.508H83.7292V188.099H84.6258V187.459H85.1382V186.754Z" fill="#87D2EF"/>
<path d="M44.5251 77.5301V83.4461H54.4888V77.5301H44.5251Z" fill="#F6E92C"/>
<path d="M158.485 41.1004H41.7229V45.7709H28.3342V47.9505H14.3228V51.9982H6.85003V58.2255H4.35911V60.4051H0V77.8415H4.35911V81.8892H10.275V85.3143H17.1251V87.4938H24.5978V90.2961H32.382V94.0325H48.2616V97.7689H64.7849V101.403H137.081V97.7689H158.485V94.0325H170.628V90.2961H176.855V87.4938H179.969V83.4461H190.244V79.7097H193.358V75.0392H196.16V60.4051H191.801V56.3573H187.442V51.9982H179.969V49.8187H170.628V45.7709H158.485V41.1004Z" fill="#402F5C"/>
<path d="M17.1252 58.2253V64.1412H22.7298V67.5662H30.2026V70.9912H36.4299V73.4822H56.6686V75.9731H73.7937V78.7754H80.021V80.9549H126.103V78.7754H138.246V75.9731H147.276V73.4822H160.976V70.9912H166.58V67.5662H173.119V64.1412H179.346V58.2253H176.233V55.7344H166.58V51.3752H25.2207V54.1775H20.2389V58.2253H17.1252Z" fill="#8E4F93"/>
<path d="M20.8616 72.5484V76.9075H22.7298V80.0211H27.4002V76.9075H30.0453V72.5484H27.4002V69.7461H22.7298V72.5484H20.8616Z" fill="#F6E92C"/>
<path d="M44.1289 81.6711V86.0302H45.9971V89.1438H50.6676V86.0302H53.3126V81.6711H50.6676V78.8688H45.9971V81.6711H44.1289Z" fill="#F6E92C"/>
<path d="M66.6626 87.3047V91.6638H68.5308V94.7774H73.2013V91.6638H75.8463V87.3047H73.2013V84.5024H68.5308V87.3047H66.6626Z" fill="#F6E92C"/>
<path d="M96.7078 90.1214V94.4805H98.576V97.5941H103.246V94.4805H105.891V90.1214H103.246V87.3191H98.576V90.1214H96.7078Z" fill="#F6E92C"/>
<path d="M122.998 87.3047V91.6638H124.866V94.7774H129.536V91.6638H132.181V87.3047H129.536V84.5024H124.866V87.3047H122.998Z" fill="#F6E92C"/>
<path d="M148.348 83.5489V87.908H150.216V91.0217H154.887V87.908H157.532V83.5489H154.887V80.7466H150.216V83.5489H148.348Z" fill="#F6E92C"/>
<path d="M169.943 75.0986V79.4577H171.811V82.5714H176.482V79.4577H179.127V75.0986H176.482V72.2963H171.811V75.0986H169.943Z" fill="#F6E92C"/>
<path d="M7.78394 75.6621V64.1416H10.2749V73.7939H14.0112V75.6621H7.78394Z" fill="#8E4F93"/>
<path d="M187.13 71.3026V74.7276H189.933V71.3026H187.13Z" fill="#8E4F93"/>
<path d="M187.13 63.83V67.2551H189.933V63.83H187.13Z" fill="#8E4F93"/>
<path d="M50.7525 55.7343H43.2797H41.7229V35.4956H44.5252V28.6456H47.6388V25.5319H49.8184V19.3046H53.5548V15.2569H57.9139V12.766H62.5844V9.65231H66.6321V6.2273H70.0571V2.80228H78.1526V0H120.187V2.80228H125.791V6.2273H131.396V9.65231H137.935V15.2569H141.36V19.3046H146.964V26.466H149.767V32.6933H153.503V38.9206H157.551V52.6207H153.503V55.7343H148.521V58.848H137.935V62.273H129.528V64.7639H108.666V69.123H85.6254V65.698H68.5003V63.2071H57.9139V58.848H50.7525V55.7343Z" fill="#312E86"/>
<path d="M51.3752 36.1186V42.6573H56.0457V49.8187H64.4526V52.3096H75.9731V56.6687H124.857V52.3096H133.576V49.8187H142.917V45.7709H145.407V28.3345H142.917V23.664H138.246V19.6162H134.821V14.6344H127.971V10.2753H119.253V6.22755H112.091V3.73663H84.3799V6.22755H73.4822V10.2753H71.614V13.3889H66.0094V17.4367H62.273V19.6162H58.2253V23.664H54.1775V36.1186H51.3752Z" fill="#87D2EF"/>
<path d="M63.5183 26.7777V36.43H67.8774V42.6573H75.3502V36.43H79.3979V26.7777H75.3502V19.9277H71.3024V23.0413H67.8774V26.7777H63.5183Z" fill="white"/>
<path d="M124.857 16.191H112.091V19.6161H116.45V20.8615H121.744V23.0411H126.414V26.4661H129.839V38.9207H124.857V43.2798H121.744V46.0821H116.45V48.2616H112.091V52.3094H118.941V48.2616H124.857V46.0821H131.396V42.0343H135.132V38.9207H137.312V26.4661H135.132V23.0411H129.839V19.6161H124.857V16.191Z" fill="#1AB3E9"/>
</svg>
